<mxfile host="Electron" agent="Mozilla/5.0 (Windows NT 10.0; Win64; x64) AppleWebKit/537.36 (KHTML, like Gecko) draw.io/24.7.17 Chrome/128.0.6613.36 Electron/32.0.1 Safari/537.36" version="24.7.17" pages="4">
  <diagram id="K-3JpvacttfluJsSegxl" name="分佈式閘道">
    <mxGraphModel dx="2284" dy="836" grid="1" gridSize="10" guides="1" tooltips="1" connect="1" arrows="1" fold="1" page="1" pageScale="1" pageWidth="850" pageHeight="1100" math="0" shadow="0">
      <root>
        <mxCell id="0" />
        <mxCell id="1" parent="0" />
        <mxCell id="3mgmRTALLVWceIJX7Oc1-1" value="" style="rounded=0;whiteSpace=wrap;html=1;fillColor=#d5e8d4;strokeColor=#82b366;" vertex="1" parent="1">
          <mxGeometry x="455" y="470" width="160" height="250" as="geometry" />
        </mxCell>
        <mxCell id="3mgmRTALLVWceIJX7Oc1-2" value="" style="rounded=0;whiteSpace=wrap;html=1;fillColor=#fff2cc;strokeColor=#d6b656;" vertex="1" parent="1">
          <mxGeometry x="630" y="470" width="160" height="250" as="geometry" />
        </mxCell>
        <mxCell id="3mgmRTALLVWceIJX7Oc1-3" value="" style="rounded=0;whiteSpace=wrap;html=1;fillColor=#fff2cc;strokeColor=#d6b656;" vertex="1" parent="1">
          <mxGeometry x="205" y="470" width="160" height="250" as="geometry" />
        </mxCell>
        <mxCell id="3mgmRTALLVWceIJX7Oc1-4" value="" style="rounded=0;whiteSpace=wrap;html=1;fillColor=#d5e8d4;strokeColor=#82b366;" vertex="1" parent="1">
          <mxGeometry x="35" y="470" width="160" height="250" as="geometry" />
        </mxCell>
        <mxCell id="3mgmRTALLVWceIJX7Oc1-5" value="" style="sketch=0;points=[[0.015,0.015,0],[0.985,0.015,0],[0.985,0.985,0],[0.015,0.985,0],[0.25,0,0],[0.5,0,0],[0.75,0,0],[1,0.25,0],[1,0.5,0],[1,0.75,0],[0.75,1,0],[0.5,1,0],[0.25,1,0],[0,0.75,0],[0,0.5,0],[0,0.25,0]];verticalLabelPosition=bottom;html=1;verticalAlign=top;aspect=fixed;align=center;pointerEvents=1;shape=mxgraph.cisco19.rect;prIcon=l3_switch;fillColor=#FAFAFA;strokeColor=#005073;" vertex="1" parent="1">
          <mxGeometry x="390" y="180" width="50" height="50" as="geometry" />
        </mxCell>
        <mxCell id="3mgmRTALLVWceIJX7Oc1-6" value="" style="sketch=0;points=[[0.015,0.015,0],[0.985,0.015,0],[0.985,0.985,0],[0.015,0.985,0],[0.25,0,0],[0.5,0,0],[0.75,0,0],[1,0.25,0],[1,0.5,0],[1,0.75,0],[0.75,1,0],[0.5,1,0],[0.25,1,0],[0,0.75,0],[0,0.5,0],[0,0.25,0]];verticalLabelPosition=bottom;html=1;verticalAlign=top;aspect=fixed;align=center;pointerEvents=1;shape=mxgraph.cisco19.rect;prIcon=l3_switch;fillColor=#FAFAFA;strokeColor=#005073;" vertex="1" parent="1">
          <mxGeometry x="600" y="390" width="50" height="50" as="geometry" />
        </mxCell>
        <mxCell id="3mgmRTALLVWceIJX7Oc1-7" value="" style="sketch=0;points=[[0.015,0.015,0],[0.985,0.015,0],[0.985,0.985,0],[0.015,0.985,0],[0.25,0,0],[0.5,0,0],[0.75,0,0],[1,0.25,0],[1,0.5,0],[1,0.75,0],[0.75,1,0],[0.5,1,0],[0.25,1,0],[0,0.75,0],[0,0.5,0],[0,0.25,0]];verticalLabelPosition=bottom;html=1;verticalAlign=top;aspect=fixed;align=center;pointerEvents=1;shape=mxgraph.cisco19.rect;prIcon=l3_switch;fillColor=#FAFAFA;strokeColor=#005073;" vertex="1" parent="1">
          <mxGeometry x="180" y="390" width="50" height="50" as="geometry" />
        </mxCell>
        <mxCell id="3mgmRTALLVWceIJX7Oc1-8" value="" style="points=[[0.13,0.02,0],[0.5,0,0],[0.87,0.02,0],[0.885,0.4,0],[0.985,0.985,0],[0.5,1,0],[0.015,0.985,0],[0.115,0.4,0]];verticalLabelPosition=bottom;sketch=0;html=1;verticalAlign=top;aspect=fixed;align=center;pointerEvents=1;shape=mxgraph.cisco19.laptop;fillColor=#005073;strokeColor=none;" vertex="1" parent="1">
          <mxGeometry x="270" y="650" width="50" height="35" as="geometry" />
        </mxCell>
        <mxCell id="3mgmRTALLVWceIJX7Oc1-9" value="" style="points=[[0.13,0.02,0],[0.5,0,0],[0.87,0.02,0],[0.885,0.4,0],[0.985,0.985,0],[0.5,1,0],[0.015,0.985,0],[0.115,0.4,0]];verticalLabelPosition=bottom;sketch=0;html=1;verticalAlign=top;aspect=fixed;align=center;pointerEvents=1;shape=mxgraph.cisco19.laptop;fillColor=#005073;strokeColor=none;" vertex="1" parent="1">
          <mxGeometry x="90" y="650" width="50" height="35" as="geometry" />
        </mxCell>
        <mxCell id="3mgmRTALLVWceIJX7Oc1-10" value="" style="points=[[0.13,0.02,0],[0.5,0,0],[0.87,0.02,0],[0.885,0.4,0],[0.985,0.985,0],[0.5,1,0],[0.015,0.985,0],[0.115,0.4,0]];verticalLabelPosition=bottom;sketch=0;html=1;verticalAlign=top;aspect=fixed;align=center;pointerEvents=1;shape=mxgraph.cisco19.laptop;fillColor=#005073;strokeColor=none;" vertex="1" parent="1">
          <mxGeometry x="690" y="640" width="50" height="35" as="geometry" />
        </mxCell>
        <mxCell id="3mgmRTALLVWceIJX7Oc1-11" value="" style="points=[[0.13,0.02,0],[0.5,0,0],[0.87,0.02,0],[0.885,0.4,0],[0.985,0.985,0],[0.5,1,0],[0.015,0.985,0],[0.115,0.4,0]];verticalLabelPosition=bottom;sketch=0;html=1;verticalAlign=top;aspect=fixed;align=center;pointerEvents=1;shape=mxgraph.cisco19.laptop;fillColor=#005073;strokeColor=none;" vertex="1" parent="1">
          <mxGeometry x="510" y="640" width="50" height="35" as="geometry" />
        </mxCell>
        <mxCell id="3mgmRTALLVWceIJX7Oc1-12" value="" style="endArrow=none;html=1;rounded=0;entryX=0.5;entryY=1;entryDx=0;entryDy=0;entryPerimeter=0;exitX=0.5;exitY=0;exitDx=0;exitDy=0;exitPerimeter=0;" edge="1" parent="1" source="3mgmRTALLVWceIJX7Oc1-9" target="3mgmRTALLVWceIJX7Oc1-7">
          <mxGeometry width="50" height="50" relative="1" as="geometry">
            <mxPoint x="570" y="450" as="sourcePoint" />
            <mxPoint x="620" y="400" as="targetPoint" />
          </mxGeometry>
        </mxCell>
        <mxCell id="3mgmRTALLVWceIJX7Oc1-13" value="" style="endArrow=none;html=1;rounded=0;entryX=0.5;entryY=1;entryDx=0;entryDy=0;entryPerimeter=0;exitX=0.5;exitY=0;exitDx=0;exitDy=0;exitPerimeter=0;" edge="1" parent="1" source="3mgmRTALLVWceIJX7Oc1-8" target="3mgmRTALLVWceIJX7Oc1-7">
          <mxGeometry width="50" height="50" relative="1" as="geometry">
            <mxPoint x="125" y="660" as="sourcePoint" />
            <mxPoint x="215" y="450" as="targetPoint" />
          </mxGeometry>
        </mxCell>
        <mxCell id="3mgmRTALLVWceIJX7Oc1-14" value="" style="endArrow=none;html=1;rounded=0;entryX=0.5;entryY=1;entryDx=0;entryDy=0;entryPerimeter=0;exitX=0.5;exitY=0;exitDx=0;exitDy=0;exitPerimeter=0;" edge="1" parent="1" source="3mgmRTALLVWceIJX7Oc1-11" target="3mgmRTALLVWceIJX7Oc1-6">
          <mxGeometry width="50" height="50" relative="1" as="geometry">
            <mxPoint x="95" y="670" as="sourcePoint" />
            <mxPoint x="185" y="460" as="targetPoint" />
          </mxGeometry>
        </mxCell>
        <mxCell id="3mgmRTALLVWceIJX7Oc1-15" value="" style="endArrow=none;html=1;rounded=0;entryX=0.5;entryY=1;entryDx=0;entryDy=0;entryPerimeter=0;exitX=0.5;exitY=0;exitDx=0;exitDy=0;exitPerimeter=0;" edge="1" parent="1" source="3mgmRTALLVWceIJX7Oc1-10" target="3mgmRTALLVWceIJX7Oc1-6">
          <mxGeometry width="50" height="50" relative="1" as="geometry">
            <mxPoint x="105" y="680" as="sourcePoint" />
            <mxPoint x="195" y="470" as="targetPoint" />
          </mxGeometry>
        </mxCell>
        <mxCell id="3mgmRTALLVWceIJX7Oc1-16" value="" style="shape=cylinder3;whiteSpace=wrap;html=1;boundedLbl=1;backgroundOutline=1;size=15;rotation=45;fillColor=#dae8fc;strokeColor=#6c8ebf;" vertex="1" parent="1">
          <mxGeometry x="290.23" y="195.71" width="31.55" height="225.75" as="geometry" />
        </mxCell>
        <mxCell id="3mgmRTALLVWceIJX7Oc1-17" value="" style="shape=cylinder3;whiteSpace=wrap;html=1;boundedLbl=1;backgroundOutline=1;size=15;rotation=-45;fillColor=#dae8fc;strokeColor=#6c8ebf;" vertex="1" parent="1">
          <mxGeometry x="508.54" y="196.46" width="30.59" height="225.75" as="geometry" />
        </mxCell>
        <mxCell id="3mgmRTALLVWceIJX7Oc1-18" value="" style="shape=cylinder3;whiteSpace=wrap;html=1;boundedLbl=1;backgroundOutline=1;size=15;rotation=90;fillColor=#dae8fc;strokeColor=#6c8ebf;" vertex="1" parent="1">
          <mxGeometry x="401.17" y="241.18" width="27.65" height="357.88" as="geometry" />
        </mxCell>
        <mxCell id="3mgmRTALLVWceIJX7Oc1-19" value="&lt;font style=&quot;font-size: 18px;&quot;&gt;VLAN 10&lt;/font&gt;" style="text;html=1;align=center;verticalAlign=middle;resizable=0;points=[];autosize=1;strokeColor=none;fillColor=none;" vertex="1" parent="1">
          <mxGeometry x="35" y="470" width="100" height="40" as="geometry" />
        </mxCell>
        <mxCell id="3mgmRTALLVWceIJX7Oc1-20" value="&lt;font style=&quot;font-size: 18px;&quot;&gt;VLAN 10&lt;/font&gt;" style="text;html=1;align=center;verticalAlign=middle;resizable=0;points=[];autosize=1;strokeColor=none;fillColor=none;" vertex="1" parent="1">
          <mxGeometry x="455" y="470" width="100" height="40" as="geometry" />
        </mxCell>
        <mxCell id="3mgmRTALLVWceIJX7Oc1-21" value="&lt;font style=&quot;font-size: 18px;&quot;&gt;VLAN 20&lt;/font&gt;" style="text;html=1;align=center;verticalAlign=middle;resizable=0;points=[];autosize=1;strokeColor=none;fillColor=none;" vertex="1" parent="1">
          <mxGeometry x="265" y="470" width="100" height="40" as="geometry" />
        </mxCell>
        <mxCell id="3mgmRTALLVWceIJX7Oc1-22" value="&lt;font style=&quot;font-size: 18px;&quot;&gt;VLAN 20&lt;/font&gt;" style="text;html=1;align=center;verticalAlign=middle;resizable=0;points=[];autosize=1;strokeColor=none;fillColor=none;" vertex="1" parent="1">
          <mxGeometry x="690" y="470" width="100" height="40" as="geometry" />
        </mxCell>
        <mxCell id="3mgmRTALLVWceIJX7Oc1-23" value="192.168.1.100/24" style="text;html=1;align=center;verticalAlign=middle;resizable=0;points=[];autosize=1;strokeColor=none;fillColor=none;" vertex="1" parent="1">
          <mxGeometry x="55" y="690" width="120" height="30" as="geometry" />
        </mxCell>
        <mxCell id="3mgmRTALLVWceIJX7Oc1-24" value="192.168.1.101/24" style="text;html=1;align=center;verticalAlign=middle;resizable=0;points=[];autosize=1;strokeColor=none;fillColor=none;" vertex="1" parent="1">
          <mxGeometry x="475" y="690" width="120" height="30" as="geometry" />
        </mxCell>
        <mxCell id="3mgmRTALLVWceIJX7Oc1-25" value="192.168.2.101/24" style="text;html=1;align=center;verticalAlign=middle;resizable=0;points=[];autosize=1;strokeColor=none;fillColor=none;" vertex="1" parent="1">
          <mxGeometry x="655" y="690" width="120" height="30" as="geometry" />
        </mxCell>
        <mxCell id="3mgmRTALLVWceIJX7Oc1-26" value="192.168.2.100/24" style="text;html=1;align=center;verticalAlign=middle;resizable=0;points=[];autosize=1;strokeColor=none;fillColor=none;" vertex="1" parent="1">
          <mxGeometry x="225" y="690" width="120" height="30" as="geometry" />
        </mxCell>
        <mxCell id="3mgmRTALLVWceIJX7Oc1-27" value="&lt;font style=&quot;font-size: 18px;&quot;&gt;Edge2&lt;/font&gt;" style="text;html=1;align=center;verticalAlign=middle;resizable=0;points=[];autosize=1;strokeColor=none;fillColor=none;" vertex="1" parent="1">
          <mxGeometry x="650" y="395" width="80" height="40" as="geometry" />
        </mxCell>
        <mxCell id="3mgmRTALLVWceIJX7Oc1-28" value="&lt;font style=&quot;font-size: 18px;&quot;&gt;Edge1&lt;/font&gt;" style="text;html=1;align=center;verticalAlign=middle;resizable=0;points=[];autosize=1;strokeColor=none;fillColor=none;" vertex="1" parent="1">
          <mxGeometry x="95" y="400" width="80" height="40" as="geometry" />
        </mxCell>
        <mxCell id="3mgmRTALLVWceIJX7Oc1-29" value="&lt;font style=&quot;font-size: 18px;&quot;&gt;Edge3(BGP RR)&lt;/font&gt;" style="text;html=1;align=center;verticalAlign=middle;resizable=0;points=[];autosize=1;strokeColor=none;fillColor=none;" vertex="1" parent="1">
          <mxGeometry x="335" y="130" width="160" height="40" as="geometry" />
        </mxCell>
        <mxCell id="3mgmRTALLVWceIJX7Oc1-30" value="" style="endArrow=classic;html=1;rounded=0;strokeWidth=3;strokeColor=#00FF00;" edge="1" parent="1">
          <mxGeometry width="50" height="50" relative="1" as="geometry">
            <mxPoint x="50" y="666.21" as="sourcePoint" />
            <mxPoint x="170" y="435" as="targetPoint" />
          </mxGeometry>
        </mxCell>
        <mxCell id="3mgmRTALLVWceIJX7Oc1-31" value="" style="endArrow=classic;html=1;rounded=0;strokeWidth=3;strokeColor=#00FF00;" edge="1" parent="1">
          <mxGeometry width="50" height="50" relative="1" as="geometry">
            <mxPoint x="180" y="365.71" as="sourcePoint" />
            <mxPoint x="550" y="366" as="targetPoint" />
          </mxGeometry>
        </mxCell>
        <mxCell id="3mgmRTALLVWceIJX7Oc1-32" value="" style="endArrow=classic;html=1;rounded=0;strokeWidth=3;strokeColor=#00FF00;" edge="1" parent="1">
          <mxGeometry width="50" height="50" relative="1" as="geometry">
            <mxPoint x="595" y="435" as="sourcePoint" />
            <mxPoint x="482.5" y="667.21" as="targetPoint" />
          </mxGeometry>
        </mxCell>
        <mxCell id="3mgmRTALLVWceIJX7Oc1-34" value="&lt;font style=&quot;font-size: 18px;&quot;&gt;S: 192.168.1.100&lt;/font&gt;&lt;div style=&quot;font-size: 18px;&quot;&gt;&lt;font style=&quot;font-size: 18px;&quot;&gt;D:192.168.2.101&lt;/font&gt;&lt;/div&gt;" style="text;html=1;align=left;verticalAlign=middle;resizable=0;points=[];autosize=1;strokeColor=none;fillColor=none;" vertex="1" parent="1">
          <mxGeometry x="-90" y="530" width="160" height="60" as="geometry" />
        </mxCell>
        <mxCell id="3mgmRTALLVWceIJX7Oc1-35" value="&lt;font style=&quot;font-size: 15px;&quot;&gt;192.168.1.254&lt;/font&gt;&lt;div style=&quot;font-size: 15px;&quot;&gt;&lt;font style=&quot;font-size: 15px;&quot;&gt;192.168.2.254&lt;/font&gt;&lt;/div&gt;" style="text;html=1;align=center;verticalAlign=middle;resizable=0;points=[];autosize=1;strokeColor=none;fillColor=none;" vertex="1" parent="1">
          <mxGeometry x="50" y="350" width="120" height="50" as="geometry" />
        </mxCell>
        <mxCell id="3mgmRTALLVWceIJX7Oc1-36" value="&lt;font style=&quot;font-size: 15px;&quot;&gt;192.168.1.254&lt;/font&gt;&lt;div style=&quot;font-size: 15px;&quot;&gt;&lt;font style=&quot;font-size: 15px;&quot;&gt;192.168.2.254&lt;/font&gt;&lt;/div&gt;" style="text;html=1;align=center;verticalAlign=middle;resizable=0;points=[];autosize=1;strokeColor=none;fillColor=none;" vertex="1" parent="1">
          <mxGeometry x="650" y="350" width="120" height="50" as="geometry" />
        </mxCell>
      </root>
    </mxGraphModel>
  </diagram>
  <diagram id="qIt_5vMvzI_wqaIJIcvk" name="集中式閘道">
    <mxGraphModel dx="2284" dy="836" grid="1" gridSize="10" guides="1" tooltips="1" connect="1" arrows="1" fold="1" page="1" pageScale="1" pageWidth="850" pageHeight="1100" math="0" shadow="0">
      <root>
        <mxCell id="0" />
        <mxCell id="1" parent="0" />
        <mxCell id="SGpeHc1o-TQf6wAU5tKb-1" value="" style="rounded=0;whiteSpace=wrap;html=1;fillColor=#d5e8d4;strokeColor=#82b366;" vertex="1" parent="1">
          <mxGeometry x="455" y="470" width="160" height="250" as="geometry" />
        </mxCell>
        <mxCell id="SGpeHc1o-TQf6wAU5tKb-2" value="" style="rounded=0;whiteSpace=wrap;html=1;fillColor=#fff2cc;strokeColor=#d6b656;" vertex="1" parent="1">
          <mxGeometry x="630" y="470" width="160" height="250" as="geometry" />
        </mxCell>
        <mxCell id="SGpeHc1o-TQf6wAU5tKb-3" value="" style="rounded=0;whiteSpace=wrap;html=1;fillColor=#fff2cc;strokeColor=#d6b656;" vertex="1" parent="1">
          <mxGeometry x="205" y="470" width="160" height="250" as="geometry" />
        </mxCell>
        <mxCell id="SGpeHc1o-TQf6wAU5tKb-4" value="" style="rounded=0;whiteSpace=wrap;html=1;fillColor=#d5e8d4;strokeColor=#82b366;" vertex="1" parent="1">
          <mxGeometry x="35" y="470" width="160" height="250" as="geometry" />
        </mxCell>
        <mxCell id="SGpeHc1o-TQf6wAU5tKb-5" value="" style="sketch=0;points=[[0.015,0.015,0],[0.985,0.015,0],[0.985,0.985,0],[0.015,0.985,0],[0.25,0,0],[0.5,0,0],[0.75,0,0],[1,0.25,0],[1,0.5,0],[1,0.75,0],[0.75,1,0],[0.5,1,0],[0.25,1,0],[0,0.75,0],[0,0.5,0],[0,0.25,0]];verticalLabelPosition=bottom;html=1;verticalAlign=top;aspect=fixed;align=center;pointerEvents=1;shape=mxgraph.cisco19.rect;prIcon=l3_switch;fillColor=#FAFAFA;strokeColor=#005073;" vertex="1" parent="1">
          <mxGeometry x="390" y="180" width="50" height="50" as="geometry" />
        </mxCell>
        <mxCell id="SGpeHc1o-TQf6wAU5tKb-6" value="" style="sketch=0;points=[[0.015,0.015,0],[0.985,0.015,0],[0.985,0.985,0],[0.015,0.985,0],[0.25,0,0],[0.5,0,0],[0.75,0,0],[1,0.25,0],[1,0.5,0],[1,0.75,0],[0.75,1,0],[0.5,1,0],[0.25,1,0],[0,0.75,0],[0,0.5,0],[0,0.25,0]];verticalLabelPosition=bottom;html=1;verticalAlign=top;aspect=fixed;align=center;pointerEvents=1;shape=mxgraph.cisco19.rect;prIcon=l3_switch;fillColor=#FAFAFA;strokeColor=#005073;" vertex="1" parent="1">
          <mxGeometry x="600" y="390" width="50" height="50" as="geometry" />
        </mxCell>
        <mxCell id="SGpeHc1o-TQf6wAU5tKb-7" value="" style="sketch=0;points=[[0.015,0.015,0],[0.985,0.015,0],[0.985,0.985,0],[0.015,0.985,0],[0.25,0,0],[0.5,0,0],[0.75,0,0],[1,0.25,0],[1,0.5,0],[1,0.75,0],[0.75,1,0],[0.5,1,0],[0.25,1,0],[0,0.75,0],[0,0.5,0],[0,0.25,0]];verticalLabelPosition=bottom;html=1;verticalAlign=top;aspect=fixed;align=center;pointerEvents=1;shape=mxgraph.cisco19.rect;prIcon=l3_switch;fillColor=#FAFAFA;strokeColor=#005073;" vertex="1" parent="1">
          <mxGeometry x="180" y="390" width="50" height="50" as="geometry" />
        </mxCell>
        <mxCell id="SGpeHc1o-TQf6wAU5tKb-8" value="" style="points=[[0.13,0.02,0],[0.5,0,0],[0.87,0.02,0],[0.885,0.4,0],[0.985,0.985,0],[0.5,1,0],[0.015,0.985,0],[0.115,0.4,0]];verticalLabelPosition=bottom;sketch=0;html=1;verticalAlign=top;aspect=fixed;align=center;pointerEvents=1;shape=mxgraph.cisco19.laptop;fillColor=#005073;strokeColor=none;" vertex="1" parent="1">
          <mxGeometry x="270" y="650" width="50" height="35" as="geometry" />
        </mxCell>
        <mxCell id="SGpeHc1o-TQf6wAU5tKb-9" value="" style="points=[[0.13,0.02,0],[0.5,0,0],[0.87,0.02,0],[0.885,0.4,0],[0.985,0.985,0],[0.5,1,0],[0.015,0.985,0],[0.115,0.4,0]];verticalLabelPosition=bottom;sketch=0;html=1;verticalAlign=top;aspect=fixed;align=center;pointerEvents=1;shape=mxgraph.cisco19.laptop;fillColor=#005073;strokeColor=none;" vertex="1" parent="1">
          <mxGeometry x="90" y="650" width="50" height="35" as="geometry" />
        </mxCell>
        <mxCell id="SGpeHc1o-TQf6wAU5tKb-10" value="" style="points=[[0.13,0.02,0],[0.5,0,0],[0.87,0.02,0],[0.885,0.4,0],[0.985,0.985,0],[0.5,1,0],[0.015,0.985,0],[0.115,0.4,0]];verticalLabelPosition=bottom;sketch=0;html=1;verticalAlign=top;aspect=fixed;align=center;pointerEvents=1;shape=mxgraph.cisco19.laptop;fillColor=#005073;strokeColor=none;" vertex="1" parent="1">
          <mxGeometry x="690" y="640" width="50" height="35" as="geometry" />
        </mxCell>
        <mxCell id="SGpeHc1o-TQf6wAU5tKb-11" value="" style="points=[[0.13,0.02,0],[0.5,0,0],[0.87,0.02,0],[0.885,0.4,0],[0.985,0.985,0],[0.5,1,0],[0.015,0.985,0],[0.115,0.4,0]];verticalLabelPosition=bottom;sketch=0;html=1;verticalAlign=top;aspect=fixed;align=center;pointerEvents=1;shape=mxgraph.cisco19.laptop;fillColor=#005073;strokeColor=none;" vertex="1" parent="1">
          <mxGeometry x="510" y="640" width="50" height="35" as="geometry" />
        </mxCell>
        <mxCell id="SGpeHc1o-TQf6wAU5tKb-12" value="" style="endArrow=none;html=1;rounded=0;entryX=0.5;entryY=1;entryDx=0;entryDy=0;entryPerimeter=0;exitX=0.5;exitY=0;exitDx=0;exitDy=0;exitPerimeter=0;" edge="1" parent="1" source="SGpeHc1o-TQf6wAU5tKb-9" target="SGpeHc1o-TQf6wAU5tKb-7">
          <mxGeometry width="50" height="50" relative="1" as="geometry">
            <mxPoint x="570" y="450" as="sourcePoint" />
            <mxPoint x="620" y="400" as="targetPoint" />
          </mxGeometry>
        </mxCell>
        <mxCell id="SGpeHc1o-TQf6wAU5tKb-13" value="" style="endArrow=none;html=1;rounded=0;entryX=0.5;entryY=1;entryDx=0;entryDy=0;entryPerimeter=0;exitX=0.5;exitY=0;exitDx=0;exitDy=0;exitPerimeter=0;" edge="1" parent="1" source="SGpeHc1o-TQf6wAU5tKb-8" target="SGpeHc1o-TQf6wAU5tKb-7">
          <mxGeometry width="50" height="50" relative="1" as="geometry">
            <mxPoint x="125" y="660" as="sourcePoint" />
            <mxPoint x="215" y="450" as="targetPoint" />
          </mxGeometry>
        </mxCell>
        <mxCell id="SGpeHc1o-TQf6wAU5tKb-14" value="" style="endArrow=none;html=1;rounded=0;entryX=0.5;entryY=1;entryDx=0;entryDy=0;entryPerimeter=0;exitX=0.5;exitY=0;exitDx=0;exitDy=0;exitPerimeter=0;" edge="1" parent="1" source="SGpeHc1o-TQf6wAU5tKb-11" target="SGpeHc1o-TQf6wAU5tKb-6">
          <mxGeometry width="50" height="50" relative="1" as="geometry">
            <mxPoint x="95" y="670" as="sourcePoint" />
            <mxPoint x="185" y="460" as="targetPoint" />
          </mxGeometry>
        </mxCell>
        <mxCell id="SGpeHc1o-TQf6wAU5tKb-15" value="" style="endArrow=none;html=1;rounded=0;entryX=0.5;entryY=1;entryDx=0;entryDy=0;entryPerimeter=0;exitX=0.5;exitY=0;exitDx=0;exitDy=0;exitPerimeter=0;" edge="1" parent="1" source="SGpeHc1o-TQf6wAU5tKb-10" target="SGpeHc1o-TQf6wAU5tKb-6">
          <mxGeometry width="50" height="50" relative="1" as="geometry">
            <mxPoint x="105" y="680" as="sourcePoint" />
            <mxPoint x="195" y="470" as="targetPoint" />
          </mxGeometry>
        </mxCell>
        <mxCell id="SGpeHc1o-TQf6wAU5tKb-16" value="" style="shape=cylinder3;whiteSpace=wrap;html=1;boundedLbl=1;backgroundOutline=1;size=15;rotation=45;fillColor=#dae8fc;strokeColor=#6c8ebf;" vertex="1" parent="1">
          <mxGeometry x="290.23" y="195.71" width="31.55" height="225.75" as="geometry" />
        </mxCell>
        <mxCell id="SGpeHc1o-TQf6wAU5tKb-17" value="" style="shape=cylinder3;whiteSpace=wrap;html=1;boundedLbl=1;backgroundOutline=1;size=15;rotation=-45;fillColor=#dae8fc;strokeColor=#6c8ebf;" vertex="1" parent="1">
          <mxGeometry x="508.54" y="196.46" width="30.59" height="225.75" as="geometry" />
        </mxCell>
        <mxCell id="SGpeHc1o-TQf6wAU5tKb-18" value="" style="shape=cylinder3;whiteSpace=wrap;html=1;boundedLbl=1;backgroundOutline=1;size=15;rotation=90;fillColor=#dae8fc;strokeColor=#6c8ebf;" vertex="1" parent="1">
          <mxGeometry x="401.17" y="241.18" width="27.65" height="357.88" as="geometry" />
        </mxCell>
        <mxCell id="SGpeHc1o-TQf6wAU5tKb-19" value="&lt;font style=&quot;font-size: 18px;&quot;&gt;VLAN 10&lt;/font&gt;" style="text;html=1;align=center;verticalAlign=middle;resizable=0;points=[];autosize=1;strokeColor=none;fillColor=none;" vertex="1" parent="1">
          <mxGeometry x="35" y="470" width="100" height="40" as="geometry" />
        </mxCell>
        <mxCell id="SGpeHc1o-TQf6wAU5tKb-20" value="&lt;font style=&quot;font-size: 18px;&quot;&gt;VLAN 10&lt;/font&gt;" style="text;html=1;align=center;verticalAlign=middle;resizable=0;points=[];autosize=1;strokeColor=none;fillColor=none;" vertex="1" parent="1">
          <mxGeometry x="455" y="470" width="100" height="40" as="geometry" />
        </mxCell>
        <mxCell id="SGpeHc1o-TQf6wAU5tKb-21" value="&lt;font style=&quot;font-size: 18px;&quot;&gt;VLAN 20&lt;/font&gt;" style="text;html=1;align=center;verticalAlign=middle;resizable=0;points=[];autosize=1;strokeColor=none;fillColor=none;" vertex="1" parent="1">
          <mxGeometry x="265" y="470" width="100" height="40" as="geometry" />
        </mxCell>
        <mxCell id="SGpeHc1o-TQf6wAU5tKb-22" value="&lt;font style=&quot;font-size: 18px;&quot;&gt;VLAN 20&lt;/font&gt;" style="text;html=1;align=center;verticalAlign=middle;resizable=0;points=[];autosize=1;strokeColor=none;fillColor=none;" vertex="1" parent="1">
          <mxGeometry x="690" y="470" width="100" height="40" as="geometry" />
        </mxCell>
        <mxCell id="SGpeHc1o-TQf6wAU5tKb-23" value="192.168.1.100/24" style="text;html=1;align=center;verticalAlign=middle;resizable=0;points=[];autosize=1;strokeColor=none;fillColor=none;" vertex="1" parent="1">
          <mxGeometry x="55" y="690" width="120" height="30" as="geometry" />
        </mxCell>
        <mxCell id="SGpeHc1o-TQf6wAU5tKb-24" value="192.168.1.101/24" style="text;html=1;align=center;verticalAlign=middle;resizable=0;points=[];autosize=1;strokeColor=none;fillColor=none;" vertex="1" parent="1">
          <mxGeometry x="475" y="690" width="120" height="30" as="geometry" />
        </mxCell>
        <mxCell id="SGpeHc1o-TQf6wAU5tKb-25" value="192.168.2.101/24" style="text;html=1;align=center;verticalAlign=middle;resizable=0;points=[];autosize=1;strokeColor=none;fillColor=none;" vertex="1" parent="1">
          <mxGeometry x="655" y="690" width="120" height="30" as="geometry" />
        </mxCell>
        <mxCell id="SGpeHc1o-TQf6wAU5tKb-26" value="192.168.2.100/24" style="text;html=1;align=center;verticalAlign=middle;resizable=0;points=[];autosize=1;strokeColor=none;fillColor=none;" vertex="1" parent="1">
          <mxGeometry x="225" y="690" width="120" height="30" as="geometry" />
        </mxCell>
        <mxCell id="SGpeHc1o-TQf6wAU5tKb-27" value="&lt;font style=&quot;font-size: 18px;&quot;&gt;Edge2&lt;/font&gt;" style="text;html=1;align=center;verticalAlign=middle;resizable=0;points=[];autosize=1;strokeColor=none;fillColor=none;" vertex="1" parent="1">
          <mxGeometry x="650" y="395" width="80" height="40" as="geometry" />
        </mxCell>
        <mxCell id="SGpeHc1o-TQf6wAU5tKb-28" value="&lt;font style=&quot;font-size: 18px;&quot;&gt;Edge1&lt;/font&gt;" style="text;html=1;align=center;verticalAlign=middle;resizable=0;points=[];autosize=1;strokeColor=none;fillColor=none;" vertex="1" parent="1">
          <mxGeometry x="95" y="400" width="80" height="40" as="geometry" />
        </mxCell>
        <mxCell id="SGpeHc1o-TQf6wAU5tKb-29" value="&lt;font style=&quot;font-size: 18px;&quot;&gt;Edge3(BGP RR)&lt;/font&gt;" style="text;html=1;align=center;verticalAlign=middle;resizable=0;points=[];autosize=1;strokeColor=none;fillColor=none;" vertex="1" parent="1">
          <mxGeometry x="335" y="130" width="160" height="40" as="geometry" />
        </mxCell>
        <mxCell id="SGpeHc1o-TQf6wAU5tKb-31" value="" style="endArrow=classic;html=1;rounded=0;strokeWidth=3;strokeColor=#00FF00;" edge="1" parent="1">
          <mxGeometry width="50" height="50" relative="1" as="geometry">
            <mxPoint x="50" y="666.21" as="sourcePoint" />
            <mxPoint x="170" y="435" as="targetPoint" />
          </mxGeometry>
        </mxCell>
        <mxCell id="SGpeHc1o-TQf6wAU5tKb-32" value="" style="endArrow=classic;html=1;rounded=0;strokeWidth=3;strokeColor=#00FF00;" edge="1" parent="1">
          <mxGeometry width="50" height="50" relative="1" as="geometry">
            <mxPoint x="180" y="365.71" as="sourcePoint" />
            <mxPoint x="350" y="195.71" as="targetPoint" />
          </mxGeometry>
        </mxCell>
        <mxCell id="SGpeHc1o-TQf6wAU5tKb-33" value="" style="endArrow=classic;html=1;rounded=0;strokeWidth=3;strokeColor=#00FF00;" edge="1" parent="1">
          <mxGeometry width="50" height="50" relative="1" as="geometry">
            <mxPoint x="460" y="190" as="sourcePoint" />
            <mxPoint x="655" y="370" as="targetPoint" />
          </mxGeometry>
        </mxCell>
        <mxCell id="SGpeHc1o-TQf6wAU5tKb-34" value="" style="endArrow=classic;html=1;rounded=0;strokeWidth=3;strokeColor=#00FF00;" edge="1" parent="1">
          <mxGeometry width="50" height="50" relative="1" as="geometry">
            <mxPoint x="670" y="450" as="sourcePoint" />
            <mxPoint x="780" y="670" as="targetPoint" />
          </mxGeometry>
        </mxCell>
        <mxCell id="SGpeHc1o-TQf6wAU5tKb-35" value="&lt;font style=&quot;font-size: 18px;&quot;&gt;S: 192.168.1.100&lt;/font&gt;&lt;div style=&quot;font-size: 18px;&quot;&gt;&lt;font style=&quot;font-size: 18px;&quot;&gt;D:192.168.2.101&lt;/font&gt;&lt;/div&gt;" style="text;html=1;align=left;verticalAlign=middle;resizable=0;points=[];autosize=1;strokeColor=none;fillColor=none;" vertex="1" parent="1">
          <mxGeometry x="-90" y="530" width="160" height="60" as="geometry" />
        </mxCell>
        <mxCell id="M_T5fH5Jgrrd4cozcJhu-1" value="&lt;font style=&quot;font-size: 15px;&quot;&gt;192.168.1.254&lt;/font&gt;&lt;div style=&quot;font-size: 15px;&quot;&gt;&lt;font style=&quot;font-size: 15px;&quot;&gt;192.168.2.254&lt;/font&gt;&lt;/div&gt;" style="text;html=1;align=center;verticalAlign=middle;resizable=0;points=[];autosize=1;strokeColor=none;fillColor=none;" vertex="1" parent="1">
          <mxGeometry x="355" y="70" width="120" height="50" as="geometry" />
        </mxCell>
      </root>
    </mxGraphModel>
  </diagram>
  <diagram id="WNvJqf95wUkP5RhPwrRD" name="VTEP-2">
    <mxGraphModel dx="2284" dy="1936" grid="1" gridSize="10" guides="1" tooltips="1" connect="1" arrows="1" fold="1" page="1" pageScale="1" pageWidth="850" pageHeight="1100" math="0" shadow="0">
      <root>
        <mxCell id="0" />
        <mxCell id="1" parent="0" />
        <mxCell id="Nh4E8_tZgigYwHagl3ml-1" value="" style="rounded=0;whiteSpace=wrap;html=1;fillColor=#d5e8d4;strokeColor=#82b366;" vertex="1" parent="1">
          <mxGeometry x="455" y="470" width="160" height="250" as="geometry" />
        </mxCell>
        <mxCell id="Nh4E8_tZgigYwHagl3ml-2" value="" style="rounded=0;whiteSpace=wrap;html=1;fillColor=#fff2cc;strokeColor=#d6b656;" vertex="1" parent="1">
          <mxGeometry x="630" y="470" width="160" height="250" as="geometry" />
        </mxCell>
        <mxCell id="Nh4E8_tZgigYwHagl3ml-3" value="" style="rounded=0;whiteSpace=wrap;html=1;fillColor=#fff2cc;strokeColor=#d6b656;" vertex="1" parent="1">
          <mxGeometry x="205" y="470" width="160" height="250" as="geometry" />
        </mxCell>
        <mxCell id="Nh4E8_tZgigYwHagl3ml-4" value="" style="rounded=0;whiteSpace=wrap;html=1;fillColor=#d5e8d4;strokeColor=#82b366;" vertex="1" parent="1">
          <mxGeometry x="35" y="470" width="160" height="250" as="geometry" />
        </mxCell>
        <mxCell id="Nh4E8_tZgigYwHagl3ml-5" value="" style="sketch=0;points=[[0.015,0.015,0],[0.985,0.015,0],[0.985,0.985,0],[0.015,0.985,0],[0.25,0,0],[0.5,0,0],[0.75,0,0],[1,0.25,0],[1,0.5,0],[1,0.75,0],[0.75,1,0],[0.5,1,0],[0.25,1,0],[0,0.75,0],[0,0.5,0],[0,0.25,0]];verticalLabelPosition=bottom;html=1;verticalAlign=top;aspect=fixed;align=center;pointerEvents=1;shape=mxgraph.cisco19.rect;prIcon=l3_switch;fillColor=#FAFAFA;strokeColor=#005073;" vertex="1" parent="1">
          <mxGeometry x="390" y="180" width="50" height="50" as="geometry" />
        </mxCell>
        <mxCell id="Nh4E8_tZgigYwHagl3ml-6" value="" style="sketch=0;points=[[0.015,0.015,0],[0.985,0.015,0],[0.985,0.985,0],[0.015,0.985,0],[0.25,0,0],[0.5,0,0],[0.75,0,0],[1,0.25,0],[1,0.5,0],[1,0.75,0],[0.75,1,0],[0.5,1,0],[0.25,1,0],[0,0.75,0],[0,0.5,0],[0,0.25,0]];verticalLabelPosition=bottom;html=1;verticalAlign=top;aspect=fixed;align=center;pointerEvents=1;shape=mxgraph.cisco19.rect;prIcon=l3_switch;fillColor=#FAFAFA;strokeColor=#005073;" vertex="1" parent="1">
          <mxGeometry x="600" y="390" width="50" height="50" as="geometry" />
        </mxCell>
        <mxCell id="Nh4E8_tZgigYwHagl3ml-7" value="" style="sketch=0;points=[[0.015,0.015,0],[0.985,0.015,0],[0.985,0.985,0],[0.015,0.985,0],[0.25,0,0],[0.5,0,0],[0.75,0,0],[1,0.25,0],[1,0.5,0],[1,0.75,0],[0.75,1,0],[0.5,1,0],[0.25,1,0],[0,0.75,0],[0,0.5,0],[0,0.25,0]];verticalLabelPosition=bottom;html=1;verticalAlign=top;aspect=fixed;align=center;pointerEvents=1;shape=mxgraph.cisco19.rect;prIcon=l3_switch;fillColor=#FAFAFA;strokeColor=#005073;" vertex="1" parent="1">
          <mxGeometry x="180" y="390" width="50" height="50" as="geometry" />
        </mxCell>
        <mxCell id="Nh4E8_tZgigYwHagl3ml-8" value="" style="points=[[0.13,0.02,0],[0.5,0,0],[0.87,0.02,0],[0.885,0.4,0],[0.985,0.985,0],[0.5,1,0],[0.015,0.985,0],[0.115,0.4,0]];verticalLabelPosition=bottom;sketch=0;html=1;verticalAlign=top;aspect=fixed;align=center;pointerEvents=1;shape=mxgraph.cisco19.laptop;fillColor=#005073;strokeColor=none;" vertex="1" parent="1">
          <mxGeometry x="270" y="650" width="50" height="35" as="geometry" />
        </mxCell>
        <mxCell id="Nh4E8_tZgigYwHagl3ml-9" value="" style="points=[[0.13,0.02,0],[0.5,0,0],[0.87,0.02,0],[0.885,0.4,0],[0.985,0.985,0],[0.5,1,0],[0.015,0.985,0],[0.115,0.4,0]];verticalLabelPosition=bottom;sketch=0;html=1;verticalAlign=top;aspect=fixed;align=center;pointerEvents=1;shape=mxgraph.cisco19.laptop;fillColor=#005073;strokeColor=none;" vertex="1" parent="1">
          <mxGeometry x="90" y="650" width="50" height="35" as="geometry" />
        </mxCell>
        <mxCell id="Nh4E8_tZgigYwHagl3ml-10" value="" style="points=[[0.13,0.02,0],[0.5,0,0],[0.87,0.02,0],[0.885,0.4,0],[0.985,0.985,0],[0.5,1,0],[0.015,0.985,0],[0.115,0.4,0]];verticalLabelPosition=bottom;sketch=0;html=1;verticalAlign=top;aspect=fixed;align=center;pointerEvents=1;shape=mxgraph.cisco19.laptop;fillColor=#005073;strokeColor=none;" vertex="1" parent="1">
          <mxGeometry x="690" y="640" width="50" height="35" as="geometry" />
        </mxCell>
        <mxCell id="Nh4E8_tZgigYwHagl3ml-11" value="" style="points=[[0.13,0.02,0],[0.5,0,0],[0.87,0.02,0],[0.885,0.4,0],[0.985,0.985,0],[0.5,1,0],[0.015,0.985,0],[0.115,0.4,0]];verticalLabelPosition=bottom;sketch=0;html=1;verticalAlign=top;aspect=fixed;align=center;pointerEvents=1;shape=mxgraph.cisco19.laptop;fillColor=#005073;strokeColor=none;" vertex="1" parent="1">
          <mxGeometry x="510" y="640" width="50" height="35" as="geometry" />
        </mxCell>
        <mxCell id="Nh4E8_tZgigYwHagl3ml-12" value="" style="endArrow=none;html=1;rounded=0;entryX=0.5;entryY=1;entryDx=0;entryDy=0;entryPerimeter=0;exitX=0.5;exitY=0;exitDx=0;exitDy=0;exitPerimeter=0;" edge="1" parent="1" source="Nh4E8_tZgigYwHagl3ml-9" target="Nh4E8_tZgigYwHagl3ml-7">
          <mxGeometry width="50" height="50" relative="1" as="geometry">
            <mxPoint x="570" y="450" as="sourcePoint" />
            <mxPoint x="620" y="400" as="targetPoint" />
          </mxGeometry>
        </mxCell>
        <mxCell id="Nh4E8_tZgigYwHagl3ml-13" value="" style="endArrow=none;html=1;rounded=0;entryX=0.5;entryY=1;entryDx=0;entryDy=0;entryPerimeter=0;exitX=0.5;exitY=0;exitDx=0;exitDy=0;exitPerimeter=0;" edge="1" parent="1" source="Nh4E8_tZgigYwHagl3ml-8" target="Nh4E8_tZgigYwHagl3ml-7">
          <mxGeometry width="50" height="50" relative="1" as="geometry">
            <mxPoint x="125" y="660" as="sourcePoint" />
            <mxPoint x="215" y="450" as="targetPoint" />
          </mxGeometry>
        </mxCell>
        <mxCell id="Nh4E8_tZgigYwHagl3ml-14" value="" style="endArrow=none;html=1;rounded=0;entryX=0.5;entryY=1;entryDx=0;entryDy=0;entryPerimeter=0;exitX=0.5;exitY=0;exitDx=0;exitDy=0;exitPerimeter=0;" edge="1" parent="1" source="Nh4E8_tZgigYwHagl3ml-11" target="Nh4E8_tZgigYwHagl3ml-6">
          <mxGeometry width="50" height="50" relative="1" as="geometry">
            <mxPoint x="95" y="670" as="sourcePoint" />
            <mxPoint x="185" y="460" as="targetPoint" />
          </mxGeometry>
        </mxCell>
        <mxCell id="Nh4E8_tZgigYwHagl3ml-15" value="" style="endArrow=none;html=1;rounded=0;entryX=0.5;entryY=1;entryDx=0;entryDy=0;entryPerimeter=0;exitX=0.5;exitY=0;exitDx=0;exitDy=0;exitPerimeter=0;" edge="1" parent="1" source="Nh4E8_tZgigYwHagl3ml-10" target="Nh4E8_tZgigYwHagl3ml-6">
          <mxGeometry width="50" height="50" relative="1" as="geometry">
            <mxPoint x="105" y="680" as="sourcePoint" />
            <mxPoint x="195" y="470" as="targetPoint" />
          </mxGeometry>
        </mxCell>
        <mxCell id="Nh4E8_tZgigYwHagl3ml-16" value="" style="shape=cylinder3;whiteSpace=wrap;html=1;boundedLbl=1;backgroundOutline=1;size=15;rotation=45;fillColor=#dae8fc;strokeColor=#6c8ebf;" vertex="1" parent="1">
          <mxGeometry x="290.23" y="195.71" width="31.55" height="225.75" as="geometry" />
        </mxCell>
        <mxCell id="Nh4E8_tZgigYwHagl3ml-17" value="" style="shape=cylinder3;whiteSpace=wrap;html=1;boundedLbl=1;backgroundOutline=1;size=15;rotation=-45;fillColor=#dae8fc;strokeColor=#6c8ebf;" vertex="1" parent="1">
          <mxGeometry x="508.54" y="196.46" width="30.59" height="225.75" as="geometry" />
        </mxCell>
        <mxCell id="Nh4E8_tZgigYwHagl3ml-18" value="" style="shape=cylinder3;whiteSpace=wrap;html=1;boundedLbl=1;backgroundOutline=1;size=15;rotation=90;fillColor=#dae8fc;strokeColor=#6c8ebf;" vertex="1" parent="1">
          <mxGeometry x="401.17" y="241.18" width="27.65" height="357.88" as="geometry" />
        </mxCell>
        <mxCell id="Nh4E8_tZgigYwHagl3ml-19" value="&lt;font style=&quot;font-size: 18px;&quot;&gt;VLAN 10&lt;/font&gt;" style="text;html=1;align=center;verticalAlign=middle;resizable=0;points=[];autosize=1;strokeColor=none;fillColor=none;" vertex="1" parent="1">
          <mxGeometry x="35" y="470" width="100" height="40" as="geometry" />
        </mxCell>
        <mxCell id="Nh4E8_tZgigYwHagl3ml-20" value="&lt;font style=&quot;font-size: 18px;&quot;&gt;VLAN 10&lt;/font&gt;" style="text;html=1;align=center;verticalAlign=middle;resizable=0;points=[];autosize=1;strokeColor=none;fillColor=none;" vertex="1" parent="1">
          <mxGeometry x="455" y="470" width="100" height="40" as="geometry" />
        </mxCell>
        <mxCell id="Nh4E8_tZgigYwHagl3ml-21" value="&lt;font style=&quot;font-size: 18px;&quot;&gt;VLAN 20&lt;/font&gt;" style="text;html=1;align=center;verticalAlign=middle;resizable=0;points=[];autosize=1;strokeColor=none;fillColor=none;" vertex="1" parent="1">
          <mxGeometry x="265" y="470" width="100" height="40" as="geometry" />
        </mxCell>
        <mxCell id="Nh4E8_tZgigYwHagl3ml-22" value="&lt;font style=&quot;font-size: 18px;&quot;&gt;VLAN 20&lt;/font&gt;" style="text;html=1;align=center;verticalAlign=middle;resizable=0;points=[];autosize=1;strokeColor=none;fillColor=none;" vertex="1" parent="1">
          <mxGeometry x="690" y="470" width="100" height="40" as="geometry" />
        </mxCell>
        <mxCell id="Nh4E8_tZgigYwHagl3ml-23" value="192.168.1.100/24" style="text;html=1;align=center;verticalAlign=middle;resizable=0;points=[];autosize=1;strokeColor=none;fillColor=none;" vertex="1" parent="1">
          <mxGeometry x="55" y="690" width="120" height="30" as="geometry" />
        </mxCell>
        <mxCell id="Nh4E8_tZgigYwHagl3ml-24" value="192.168.1.101/24" style="text;html=1;align=center;verticalAlign=middle;resizable=0;points=[];autosize=1;strokeColor=none;fillColor=none;" vertex="1" parent="1">
          <mxGeometry x="475" y="690" width="120" height="30" as="geometry" />
        </mxCell>
        <mxCell id="Nh4E8_tZgigYwHagl3ml-25" value="192.168.2.101/24" style="text;html=1;align=center;verticalAlign=middle;resizable=0;points=[];autosize=1;strokeColor=none;fillColor=none;" vertex="1" parent="1">
          <mxGeometry x="655" y="690" width="120" height="30" as="geometry" />
        </mxCell>
        <mxCell id="Nh4E8_tZgigYwHagl3ml-26" value="192.168.2.100/24" style="text;html=1;align=center;verticalAlign=middle;resizable=0;points=[];autosize=1;strokeColor=none;fillColor=none;" vertex="1" parent="1">
          <mxGeometry x="225" y="690" width="120" height="30" as="geometry" />
        </mxCell>
        <mxCell id="Nh4E8_tZgigYwHagl3ml-29" value="&lt;font style=&quot;font-size: 18px;&quot;&gt;Edge2&lt;/font&gt;" style="text;html=1;align=center;verticalAlign=middle;resizable=0;points=[];autosize=1;strokeColor=none;fillColor=none;" vertex="1" parent="1">
          <mxGeometry x="650" y="395" width="80" height="40" as="geometry" />
        </mxCell>
        <mxCell id="Nh4E8_tZgigYwHagl3ml-30" value="&lt;font style=&quot;font-size: 18px;&quot;&gt;Edge1&lt;/font&gt;" style="text;html=1;align=center;verticalAlign=middle;resizable=0;points=[];autosize=1;strokeColor=none;fillColor=none;" vertex="1" parent="1">
          <mxGeometry x="95" y="400" width="80" height="40" as="geometry" />
        </mxCell>
        <mxCell id="Nh4E8_tZgigYwHagl3ml-31" value="&lt;font style=&quot;font-size: 18px;&quot;&gt;Edge3(BGP RR)&lt;/font&gt;" style="text;html=1;align=center;verticalAlign=middle;resizable=0;points=[];autosize=1;strokeColor=none;fillColor=none;" vertex="1" parent="1">
          <mxGeometry x="435" y="180" width="160" height="40" as="geometry" />
        </mxCell>
        <mxCell id="Nh4E8_tZgigYwHagl3ml-33" value="&lt;div style=&quot;color: #e1e4e8;background-color: #24292e;font-family: Consolas, &#39;Courier New&#39;, monospace;font-weight: normal;font-size: 14px;line-height: 19px;white-space: pre;&quot;&gt;&lt;div&gt;&lt;span style=&quot;color: #b392f0;&quot;&gt;vlan&lt;/span&gt;&lt;span style=&quot;color: #e1e4e8;&quot;&gt; &lt;/span&gt;&lt;span style=&quot;color: #79b8ff;&quot;&gt;10&lt;/span&gt;&lt;/div&gt;&lt;div&gt;&lt;span style=&quot;color: #e1e4e8;&quot;&gt;&amp;nbsp; &amp;nbsp; &lt;/span&gt;&lt;span style=&quot;color: #b392f0;&quot;&gt;vn-segment&lt;/span&gt;&lt;span style=&quot;color: #e1e4e8;&quot;&gt; &lt;/span&gt;&lt;span style=&quot;color: #79b8ff;&quot;&gt;10&lt;/span&gt;&lt;span style=&quot;color: #e1e4e8;&quot;&gt; &lt;/span&gt;&lt;span style=&quot;color: #6a737d;&quot;&gt;#binding VNI&lt;/span&gt;&lt;/div&gt;&lt;div&gt;&lt;span style=&quot;color: #b392f0;&quot;&gt;vlan&lt;/span&gt;&lt;span style=&quot;color: #e1e4e8;&quot;&gt; &lt;/span&gt;&lt;span style=&quot;color: #79b8ff;&quot;&gt;20&lt;/span&gt;&lt;span style=&quot;color: #e1e4e8;&quot;&gt; &lt;/span&gt;&lt;/div&gt;&lt;div&gt;&lt;span style=&quot;color: #e1e4e8;&quot;&gt;&amp;nbsp; &amp;nbsp; &lt;/span&gt;&lt;span style=&quot;color: #b392f0;&quot;&gt;vn-segment&lt;/span&gt;&lt;span style=&quot;color: #e1e4e8;&quot;&gt; &lt;/span&gt;&lt;span style=&quot;color: #79b8ff;&quot;&gt;20&lt;/span&gt;&lt;span style=&quot;color: #e1e4e8;&quot;&gt; &lt;/span&gt;&lt;span style=&quot;color: #6a737d;&quot;&gt;#binding VNI&lt;/span&gt;&lt;/div&gt;&lt;div&gt;&lt;div style=&quot;line-height: 19px;&quot;&gt;&lt;div&gt;&lt;span style=&quot;color: #b392f0;&quot;&gt;int&lt;/span&gt; &lt;span style=&quot;color: #9ecbff;&quot;&gt;nve&lt;/span&gt; &lt;span style=&quot;color: #79b8ff;&quot;&gt;1&lt;/span&gt;&lt;/div&gt;&lt;div&gt;&amp;nbsp; &amp;nbsp; &lt;span style=&quot;color: #b392f0;&quot;&gt;no&lt;/span&gt; &lt;span style=&quot;color: #9ecbff;&quot;&gt;shutdown&lt;/span&gt; &lt;/div&gt;&lt;div&gt;&amp;nbsp; &amp;nbsp; &lt;span style=&quot;color: #b392f0;&quot;&gt;source-interface&lt;/span&gt; &lt;span style=&quot;color: #9ecbff;&quot;&gt;loopback&lt;/span&gt; &lt;span style=&quot;color: #79b8ff;&quot;&gt;0&lt;/span&gt;&lt;/div&gt;&lt;div&gt;&amp;nbsp; &amp;nbsp; &lt;span style=&quot;color: #b392f0;&quot;&gt;member&lt;/span&gt; &lt;span style=&quot;color: #9ecbff;&quot;&gt;vni&lt;/span&gt; &lt;span style=&quot;color: #79b8ff;&quot;&gt;10&lt;/span&gt; &lt;/div&gt;&lt;div&gt;&amp;nbsp; &amp;nbsp; &amp;nbsp; &amp;nbsp; &lt;span style=&quot;color: #b392f0;&quot;&gt;ingress-replication&lt;/span&gt; &lt;span style=&quot;color: #9ecbff;&quot;&gt;protocol&lt;/span&gt; &lt;span style=&quot;color: #9ecbff;&quot;&gt;static&lt;/span&gt;&lt;/div&gt;&lt;div&gt;&amp;nbsp; &amp;nbsp; &amp;nbsp; &amp;nbsp; &amp;nbsp; &amp;nbsp; &lt;span style=&quot;color: #b392f0;&quot;&gt;peer-ip&lt;/span&gt; &lt;span style=&quot;color: #79b8ff;&quot;&gt;2.2.2.2&lt;/span&gt; &lt;/div&gt;&lt;div&gt;&amp;nbsp; &amp;nbsp; &amp;nbsp; &amp;nbsp; &amp;nbsp; &amp;nbsp; &lt;span style=&quot;color: #b392f0;&quot;&gt;peer-ip&lt;/span&gt; &lt;span style=&quot;color: #79b8ff;&quot;&gt;3.3.3.3&lt;/span&gt;&lt;/div&gt;&lt;div&gt;&amp;nbsp; &amp;nbsp; &lt;span style=&quot;color: #b392f0;&quot;&gt;member&lt;/span&gt; &lt;span style=&quot;color: #9ecbff;&quot;&gt;vni&lt;/span&gt; &lt;span style=&quot;color: #79b8ff;&quot;&gt;20&lt;/span&gt; &lt;/div&gt;&lt;div&gt;&amp;nbsp; &amp;nbsp; &amp;nbsp; &amp;nbsp; &lt;span style=&quot;color: #b392f0;&quot;&gt;ingress-replication&lt;/span&gt; &lt;span style=&quot;color: #9ecbff;&quot;&gt;protocol&lt;/span&gt; &lt;span style=&quot;color: #9ecbff;&quot;&gt;static&lt;/span&gt;&lt;/div&gt;&lt;div&gt;&amp;nbsp; &amp;nbsp; &amp;nbsp; &amp;nbsp; &amp;nbsp; &amp;nbsp; &lt;span style=&quot;color: #b392f0;&quot;&gt;peer-ip&lt;/span&gt; &lt;span style=&quot;color: #79b8ff;&quot;&gt;2.2.2.2&lt;/span&gt;&lt;/div&gt;&lt;div&gt;&amp;nbsp; &amp;nbsp; &amp;nbsp; &amp;nbsp; &amp;nbsp; &amp;nbsp; &lt;span style=&quot;color: #b392f0;&quot;&gt;peer-ip&lt;/span&gt; &lt;span style=&quot;color: #79b8ff;&quot;&gt;3.3.3.3&lt;/span&gt; &lt;/div&gt;&lt;/div&gt;&lt;/div&gt;&lt;/div&gt;" style="text;whiteSpace=wrap;html=1;" vertex="1" parent="1">
          <mxGeometry x="-250" y="160" width="260" height="100" as="geometry" />
        </mxCell>
        <mxCell id="Nh4E8_tZgigYwHagl3ml-34" value="&lt;div style=&quot;color: #e1e4e8;background-color: #24292e;font-family: Consolas, &#39;Courier New&#39;, monospace;font-weight: normal;font-size: 14px;line-height: 19px;white-space: pre;&quot;&gt;&lt;div&gt;&lt;span style=&quot;color: #b392f0;&quot;&gt;vlan&lt;/span&gt;&lt;span style=&quot;color: #e1e4e8;&quot;&gt; &lt;/span&gt;&lt;span style=&quot;color: #79b8ff;&quot;&gt;10&lt;/span&gt;&lt;/div&gt;&lt;div&gt;&lt;span style=&quot;color: #e1e4e8;&quot;&gt;&amp;nbsp; &amp;nbsp; &lt;/span&gt;&lt;span style=&quot;color: #b392f0;&quot;&gt;vn-segment&lt;/span&gt;&lt;span style=&quot;color: #e1e4e8;&quot;&gt; &lt;/span&gt;&lt;span style=&quot;color: #79b8ff;&quot;&gt;10&lt;/span&gt;&lt;span style=&quot;color: #e1e4e8;&quot;&gt; &lt;/span&gt;&lt;span style=&quot;color: #6a737d;&quot;&gt;#binding VNI&lt;/span&gt;&lt;/div&gt;&lt;div&gt;&lt;span style=&quot;color: #b392f0;&quot;&gt;vlan&lt;/span&gt;&lt;span style=&quot;color: #e1e4e8;&quot;&gt; &lt;/span&gt;&lt;span style=&quot;color: #79b8ff;&quot;&gt;20&lt;/span&gt;&lt;span style=&quot;color: #e1e4e8;&quot;&gt; &lt;/span&gt;&lt;/div&gt;&lt;div&gt;&lt;span style=&quot;color: #e1e4e8;&quot;&gt;&amp;nbsp; &amp;nbsp; &lt;/span&gt;&lt;span style=&quot;color: #b392f0;&quot;&gt;vn-segment&lt;/span&gt;&lt;span style=&quot;color: #e1e4e8;&quot;&gt; &lt;/span&gt;&lt;span style=&quot;color: #79b8ff;&quot;&gt;20&lt;/span&gt;&lt;span style=&quot;color: #e1e4e8;&quot;&gt; &lt;/span&gt;&lt;span style=&quot;color: #6a737d;&quot;&gt;#binding VNI&lt;/span&gt;&lt;/div&gt;&lt;div&gt;&lt;div style=&quot;line-height: 19px;&quot;&gt;&lt;div&gt;&lt;span style=&quot;color: #b392f0;&quot;&gt;int&lt;/span&gt; &lt;span style=&quot;color: #9ecbff;&quot;&gt;nve&lt;/span&gt; &lt;span style=&quot;color: #79b8ff;&quot;&gt;1&lt;/span&gt;&lt;/div&gt;&lt;div&gt;&amp;nbsp; &amp;nbsp; &lt;span style=&quot;color: #b392f0;&quot;&gt;no&lt;/span&gt; &lt;span style=&quot;color: #9ecbff;&quot;&gt;shutdown&lt;/span&gt; &lt;/div&gt;&lt;div&gt;&amp;nbsp; &amp;nbsp; &lt;span style=&quot;color: #b392f0;&quot;&gt;source-interface&lt;/span&gt; &lt;span style=&quot;color: #9ecbff;&quot;&gt;loopback&lt;/span&gt; &lt;span style=&quot;color: #79b8ff;&quot;&gt;0&lt;/span&gt;&lt;/div&gt;&lt;div&gt;&amp;nbsp; &amp;nbsp; &lt;span style=&quot;color: #b392f0;&quot;&gt;member&lt;/span&gt; &lt;span style=&quot;color: #9ecbff;&quot;&gt;vni&lt;/span&gt; &lt;span style=&quot;color: #79b8ff;&quot;&gt;10&lt;/span&gt; &lt;/div&gt;&lt;div&gt;&amp;nbsp; &amp;nbsp; &amp;nbsp; &amp;nbsp; &lt;span style=&quot;color: #b392f0;&quot;&gt;ingress-replication&lt;/span&gt; &lt;span style=&quot;color: #9ecbff;&quot;&gt;protocol&lt;/span&gt; &lt;span style=&quot;color: #9ecbff;&quot;&gt;static&lt;/span&gt;&lt;/div&gt;&lt;div&gt;&amp;nbsp; &amp;nbsp; &amp;nbsp; &amp;nbsp; &amp;nbsp; &amp;nbsp; &lt;span style=&quot;color: #b392f0;&quot;&gt;peer-ip&lt;/span&gt; &lt;span style=&quot;color: #79b8ff;&quot;&gt;1.1.1.1&lt;/span&gt;&lt;/div&gt;&lt;div&gt;&amp;nbsp; &amp;nbsp; &amp;nbsp; &amp;nbsp; &amp;nbsp; &amp;nbsp; &lt;span style=&quot;color: #b392f0;&quot;&gt;peer-ip&lt;/span&gt; &lt;span style=&quot;color: #79b8ff;&quot;&gt;3.3.3.3&lt;/span&gt;&lt;/div&gt;&lt;div&gt;&amp;nbsp; &amp;nbsp; &lt;span style=&quot;color: #b392f0;&quot;&gt;member&lt;/span&gt; &lt;span style=&quot;color: #9ecbff;&quot;&gt;vni&lt;/span&gt; &lt;span style=&quot;color: #79b8ff;&quot;&gt;20&lt;/span&gt;&lt;/div&gt;&lt;div&gt;&amp;nbsp; &amp;nbsp; &amp;nbsp; &amp;nbsp; &lt;span style=&quot;color: #b392f0;&quot;&gt;ingress-replication&lt;/span&gt; &lt;span style=&quot;color: #9ecbff;&quot;&gt;protocol&lt;/span&gt; &lt;span style=&quot;color: #9ecbff;&quot;&gt;static&lt;/span&gt;&lt;/div&gt;&lt;div&gt;&amp;nbsp; &amp;nbsp; &amp;nbsp; &amp;nbsp; &amp;nbsp; &amp;nbsp; &lt;span style=&quot;color: #b392f0;&quot;&gt;peer-ip&lt;/span&gt; &lt;span style=&quot;color: #79b8ff;&quot;&gt;1.1.1.1&lt;/span&gt;&lt;/div&gt;&lt;div&gt;&amp;nbsp; &amp;nbsp; &amp;nbsp; &amp;nbsp; &amp;nbsp; &amp;nbsp; &lt;span style=&quot;color: #b392f0;&quot;&gt;peer-ip&lt;/span&gt; &lt;span style=&quot;color: #79b8ff;&quot;&gt;3.3.3.3&lt;/span&gt;&lt;/div&gt;&lt;/div&gt;&lt;/div&gt;&lt;/div&gt;" style="text;whiteSpace=wrap;html=1;" vertex="1" parent="1">
          <mxGeometry x="740" y="150" width="260" height="100" as="geometry" />
        </mxCell>
        <mxCell id="Nh4E8_tZgigYwHagl3ml-35" value="&lt;div style=&quot;color: #e1e4e8;background-color: #24292e;font-family: Consolas, &#39;Courier New&#39;, monospace;font-weight: normal;font-size: 14px;line-height: 19px;white-space: pre;&quot;&gt;&lt;div&gt;&lt;span style=&quot;color: #b392f0;&quot;&gt;vlan&lt;/span&gt;&lt;span style=&quot;color: #e1e4e8;&quot;&gt; &lt;/span&gt;&lt;span style=&quot;color: #79b8ff;&quot;&gt;10&lt;/span&gt;&lt;/div&gt;&lt;div&gt;&lt;span style=&quot;color: #e1e4e8;&quot;&gt;&amp;nbsp; &amp;nbsp; &lt;/span&gt;&lt;span style=&quot;color: #b392f0;&quot;&gt;vn-segment&lt;/span&gt;&lt;span style=&quot;color: #e1e4e8;&quot;&gt; &lt;/span&gt;&lt;span style=&quot;color: #79b8ff;&quot;&gt;10&lt;/span&gt;&lt;span style=&quot;color: #e1e4e8;&quot;&gt; &lt;/span&gt;&lt;span style=&quot;color: #6a737d;&quot;&gt;#binding VNI&lt;/span&gt;&lt;/div&gt;&lt;div&gt;&lt;span style=&quot;color: #b392f0;&quot;&gt;vlan&lt;/span&gt;&lt;span style=&quot;color: #e1e4e8;&quot;&gt; &lt;/span&gt;&lt;span style=&quot;color: #79b8ff;&quot;&gt;20&lt;/span&gt;&lt;span style=&quot;color: #e1e4e8;&quot;&gt; &lt;/span&gt;&lt;/div&gt;&lt;div&gt;&lt;span style=&quot;color: #e1e4e8;&quot;&gt;&amp;nbsp; &amp;nbsp; &lt;/span&gt;&lt;span style=&quot;color: #b392f0;&quot;&gt;vn-segment&lt;/span&gt;&lt;span style=&quot;color: #e1e4e8;&quot;&gt; &lt;/span&gt;&lt;span style=&quot;color: #79b8ff;&quot;&gt;20&lt;/span&gt;&lt;span style=&quot;color: #e1e4e8;&quot;&gt; &lt;/span&gt;&lt;span style=&quot;color: #6a737d;&quot;&gt;#binding VNI&lt;/span&gt;&lt;/div&gt;&lt;div&gt;&lt;div style=&quot;line-height: 19px;&quot;&gt;&lt;div&gt;&lt;span style=&quot;color: #b392f0;&quot;&gt;int&lt;/span&gt; &lt;span style=&quot;color: #9ecbff;&quot;&gt;nve&lt;/span&gt; &lt;span style=&quot;color: #79b8ff;&quot;&gt;1&lt;/span&gt;&lt;/div&gt;&lt;div&gt;&amp;nbsp; &amp;nbsp; &lt;span style=&quot;color: #b392f0;&quot;&gt;no&lt;/span&gt; &lt;span style=&quot;color: #9ecbff;&quot;&gt;shutdown&lt;/span&gt; &lt;/div&gt;&lt;div&gt;&amp;nbsp; &amp;nbsp; &lt;span style=&quot;color: #b392f0;&quot;&gt;source-interface&lt;/span&gt; &lt;span style=&quot;color: #9ecbff;&quot;&gt;loopback&lt;/span&gt; &lt;span style=&quot;color: #79b8ff;&quot;&gt;0&lt;/span&gt;&lt;/div&gt;&lt;div&gt;&amp;nbsp; &amp;nbsp; &lt;span style=&quot;color: #b392f0;&quot;&gt;member&lt;/span&gt; &lt;span style=&quot;color: #9ecbff;&quot;&gt;vni&lt;/span&gt; &lt;span style=&quot;color: #79b8ff;&quot;&gt;10&lt;/span&gt; &lt;/div&gt;&lt;div&gt;&amp;nbsp; &amp;nbsp; &amp;nbsp; &amp;nbsp; &lt;span style=&quot;color: #b392f0;&quot;&gt;ingress-replication&lt;/span&gt; &lt;span style=&quot;color: #9ecbff;&quot;&gt;protocol&lt;/span&gt; &lt;span style=&quot;color: #9ecbff;&quot;&gt;static&lt;/span&gt;&lt;/div&gt;&lt;div&gt;&amp;nbsp; &amp;nbsp; &amp;nbsp; &amp;nbsp; &amp;nbsp; &amp;nbsp; &lt;span style=&quot;color: #b392f0;&quot;&gt;peer-ip&lt;/span&gt; &lt;span style=&quot;color: #79b8ff;&quot;&gt;1.1.1.1&lt;/span&gt;&lt;/div&gt;&lt;div&gt;&amp;nbsp; &amp;nbsp; &amp;nbsp; &amp;nbsp; &amp;nbsp; &amp;nbsp; &lt;span style=&quot;color: #b392f0;&quot;&gt;peer-ip&lt;/span&gt; &lt;span style=&quot;color: #79b8ff;&quot;&gt;2.2.2.2&lt;/span&gt;&lt;/div&gt;&lt;div&gt;&amp;nbsp; &amp;nbsp; &lt;span style=&quot;color: #b392f0;&quot;&gt;member&lt;/span&gt; &lt;span style=&quot;color: #9ecbff;&quot;&gt;vni&lt;/span&gt; &lt;span style=&quot;color: #79b8ff;&quot;&gt;20&lt;/span&gt;&lt;/div&gt;&lt;div&gt;&amp;nbsp; &amp;nbsp; &amp;nbsp; &amp;nbsp; &lt;span style=&quot;color: #b392f0;&quot;&gt;ingress-replication&lt;/span&gt; &lt;span style=&quot;color: #9ecbff;&quot;&gt;protocol&lt;/span&gt; &lt;span style=&quot;color: #9ecbff;&quot;&gt;static&lt;/span&gt;&lt;/div&gt;&lt;div&gt;&amp;nbsp; &amp;nbsp; &amp;nbsp; &amp;nbsp; &amp;nbsp; &amp;nbsp; &lt;span style=&quot;color: #b392f0;&quot;&gt;peer-ip&lt;/span&gt; &lt;span style=&quot;color: #79b8ff;&quot;&gt;1.1.1.1&lt;/span&gt;&lt;/div&gt;&lt;div&gt;&amp;nbsp; &amp;nbsp; &amp;nbsp; &amp;nbsp; &amp;nbsp; &amp;nbsp; &lt;span style=&quot;color: #b392f0;&quot;&gt;peer-ip&lt;/span&gt; &lt;span style=&quot;color: #79b8ff;&quot;&gt;2.2.2.2&lt;/span&gt;&lt;/div&gt;&lt;/div&gt;&lt;/div&gt;&lt;/div&gt;" style="text;whiteSpace=wrap;html=1;" vertex="1" parent="1">
          <mxGeometry x="248.54000000000002" y="-150" width="260" height="100" as="geometry" />
        </mxCell>
      </root>
    </mxGraphModel>
  </diagram>
  <diagram name="VTEP-1" id="pOjsYCfofHMns77ugQcv">
    <mxGraphModel dx="2284" dy="1936" grid="1" gridSize="10" guides="1" tooltips="1" connect="1" arrows="1" fold="1" page="1" pageScale="1" pageWidth="850" pageHeight="1100" math="0" shadow="0">
      <root>
        <mxCell id="0" />
        <mxCell id="1" parent="0" />
        <mxCell id="qfekVwu-YrUrt4sBsBPj-18" value="" style="rounded=0;whiteSpace=wrap;html=1;fillColor=#d5e8d4;strokeColor=#82b366;" vertex="1" parent="1">
          <mxGeometry x="455" y="470" width="160" height="250" as="geometry" />
        </mxCell>
        <mxCell id="qfekVwu-YrUrt4sBsBPj-19" value="" style="rounded=0;whiteSpace=wrap;html=1;fillColor=#fff2cc;strokeColor=#d6b656;" vertex="1" parent="1">
          <mxGeometry x="630" y="470" width="160" height="250" as="geometry" />
        </mxCell>
        <mxCell id="qfekVwu-YrUrt4sBsBPj-17" value="" style="rounded=0;whiteSpace=wrap;html=1;fillColor=#fff2cc;strokeColor=#d6b656;" vertex="1" parent="1">
          <mxGeometry x="205" y="470" width="160" height="250" as="geometry" />
        </mxCell>
        <mxCell id="qfekVwu-YrUrt4sBsBPj-16" value="" style="rounded=0;whiteSpace=wrap;html=1;fillColor=#d5e8d4;strokeColor=#82b366;" vertex="1" parent="1">
          <mxGeometry x="35" y="470" width="160" height="250" as="geometry" />
        </mxCell>
        <mxCell id="qfekVwu-YrUrt4sBsBPj-1" value="" style="sketch=0;points=[[0.015,0.015,0],[0.985,0.015,0],[0.985,0.985,0],[0.015,0.985,0],[0.25,0,0],[0.5,0,0],[0.75,0,0],[1,0.25,0],[1,0.5,0],[1,0.75,0],[0.75,1,0],[0.5,1,0],[0.25,1,0],[0,0.75,0],[0,0.5,0],[0,0.25,0]];verticalLabelPosition=bottom;html=1;verticalAlign=top;aspect=fixed;align=center;pointerEvents=1;shape=mxgraph.cisco19.rect;prIcon=l3_switch;fillColor=#FAFAFA;strokeColor=#005073;" vertex="1" parent="1">
          <mxGeometry x="390" y="180" width="50" height="50" as="geometry" />
        </mxCell>
        <mxCell id="qfekVwu-YrUrt4sBsBPj-2" value="" style="sketch=0;points=[[0.015,0.015,0],[0.985,0.015,0],[0.985,0.985,0],[0.015,0.985,0],[0.25,0,0],[0.5,0,0],[0.75,0,0],[1,0.25,0],[1,0.5,0],[1,0.75,0],[0.75,1,0],[0.5,1,0],[0.25,1,0],[0,0.75,0],[0,0.5,0],[0,0.25,0]];verticalLabelPosition=bottom;html=1;verticalAlign=top;aspect=fixed;align=center;pointerEvents=1;shape=mxgraph.cisco19.rect;prIcon=l3_switch;fillColor=#FAFAFA;strokeColor=#005073;" vertex="1" parent="1">
          <mxGeometry x="600" y="390" width="50" height="50" as="geometry" />
        </mxCell>
        <mxCell id="qfekVwu-YrUrt4sBsBPj-3" value="" style="sketch=0;points=[[0.015,0.015,0],[0.985,0.015,0],[0.985,0.985,0],[0.015,0.985,0],[0.25,0,0],[0.5,0,0],[0.75,0,0],[1,0.25,0],[1,0.5,0],[1,0.75,0],[0.75,1,0],[0.5,1,0],[0.25,1,0],[0,0.75,0],[0,0.5,0],[0,0.25,0]];verticalLabelPosition=bottom;html=1;verticalAlign=top;aspect=fixed;align=center;pointerEvents=1;shape=mxgraph.cisco19.rect;prIcon=l3_switch;fillColor=#FAFAFA;strokeColor=#005073;" vertex="1" parent="1">
          <mxGeometry x="180" y="390" width="50" height="50" as="geometry" />
        </mxCell>
        <mxCell id="qfekVwu-YrUrt4sBsBPj-4" value="" style="points=[[0.13,0.02,0],[0.5,0,0],[0.87,0.02,0],[0.885,0.4,0],[0.985,0.985,0],[0.5,1,0],[0.015,0.985,0],[0.115,0.4,0]];verticalLabelPosition=bottom;sketch=0;html=1;verticalAlign=top;aspect=fixed;align=center;pointerEvents=1;shape=mxgraph.cisco19.laptop;fillColor=#005073;strokeColor=none;" vertex="1" parent="1">
          <mxGeometry x="270" y="650" width="50" height="35" as="geometry" />
        </mxCell>
        <mxCell id="qfekVwu-YrUrt4sBsBPj-5" value="" style="points=[[0.13,0.02,0],[0.5,0,0],[0.87,0.02,0],[0.885,0.4,0],[0.985,0.985,0],[0.5,1,0],[0.015,0.985,0],[0.115,0.4,0]];verticalLabelPosition=bottom;sketch=0;html=1;verticalAlign=top;aspect=fixed;align=center;pointerEvents=1;shape=mxgraph.cisco19.laptop;fillColor=#005073;strokeColor=none;" vertex="1" parent="1">
          <mxGeometry x="90" y="650" width="50" height="35" as="geometry" />
        </mxCell>
        <mxCell id="qfekVwu-YrUrt4sBsBPj-6" value="" style="points=[[0.13,0.02,0],[0.5,0,0],[0.87,0.02,0],[0.885,0.4,0],[0.985,0.985,0],[0.5,1,0],[0.015,0.985,0],[0.115,0.4,0]];verticalLabelPosition=bottom;sketch=0;html=1;verticalAlign=top;aspect=fixed;align=center;pointerEvents=1;shape=mxgraph.cisco19.laptop;fillColor=#005073;strokeColor=none;" vertex="1" parent="1">
          <mxGeometry x="690" y="640" width="50" height="35" as="geometry" />
        </mxCell>
        <mxCell id="qfekVwu-YrUrt4sBsBPj-7" value="" style="points=[[0.13,0.02,0],[0.5,0,0],[0.87,0.02,0],[0.885,0.4,0],[0.985,0.985,0],[0.5,1,0],[0.015,0.985,0],[0.115,0.4,0]];verticalLabelPosition=bottom;sketch=0;html=1;verticalAlign=top;aspect=fixed;align=center;pointerEvents=1;shape=mxgraph.cisco19.laptop;fillColor=#005073;strokeColor=none;" vertex="1" parent="1">
          <mxGeometry x="510" y="640" width="50" height="35" as="geometry" />
        </mxCell>
        <mxCell id="qfekVwu-YrUrt4sBsBPj-8" value="" style="endArrow=none;html=1;rounded=0;entryX=0.5;entryY=1;entryDx=0;entryDy=0;entryPerimeter=0;exitX=0.5;exitY=0;exitDx=0;exitDy=0;exitPerimeter=0;" edge="1" parent="1" source="qfekVwu-YrUrt4sBsBPj-5" target="qfekVwu-YrUrt4sBsBPj-3">
          <mxGeometry width="50" height="50" relative="1" as="geometry">
            <mxPoint x="570" y="450" as="sourcePoint" />
            <mxPoint x="620" y="400" as="targetPoint" />
          </mxGeometry>
        </mxCell>
        <mxCell id="qfekVwu-YrUrt4sBsBPj-9" value="" style="endArrow=none;html=1;rounded=0;entryX=0.5;entryY=1;entryDx=0;entryDy=0;entryPerimeter=0;exitX=0.5;exitY=0;exitDx=0;exitDy=0;exitPerimeter=0;" edge="1" parent="1" source="qfekVwu-YrUrt4sBsBPj-4" target="qfekVwu-YrUrt4sBsBPj-3">
          <mxGeometry width="50" height="50" relative="1" as="geometry">
            <mxPoint x="125" y="660" as="sourcePoint" />
            <mxPoint x="215" y="450" as="targetPoint" />
          </mxGeometry>
        </mxCell>
        <mxCell id="qfekVwu-YrUrt4sBsBPj-10" value="" style="endArrow=none;html=1;rounded=0;entryX=0.5;entryY=1;entryDx=0;entryDy=0;entryPerimeter=0;exitX=0.5;exitY=0;exitDx=0;exitDy=0;exitPerimeter=0;" edge="1" parent="1" source="qfekVwu-YrUrt4sBsBPj-7" target="qfekVwu-YrUrt4sBsBPj-2">
          <mxGeometry width="50" height="50" relative="1" as="geometry">
            <mxPoint x="95" y="670" as="sourcePoint" />
            <mxPoint x="185" y="460" as="targetPoint" />
          </mxGeometry>
        </mxCell>
        <mxCell id="qfekVwu-YrUrt4sBsBPj-11" value="" style="endArrow=none;html=1;rounded=0;entryX=0.5;entryY=1;entryDx=0;entryDy=0;entryPerimeter=0;exitX=0.5;exitY=0;exitDx=0;exitDy=0;exitPerimeter=0;" edge="1" parent="1" source="qfekVwu-YrUrt4sBsBPj-6" target="qfekVwu-YrUrt4sBsBPj-2">
          <mxGeometry width="50" height="50" relative="1" as="geometry">
            <mxPoint x="105" y="680" as="sourcePoint" />
            <mxPoint x="195" y="470" as="targetPoint" />
          </mxGeometry>
        </mxCell>
        <mxCell id="qfekVwu-YrUrt4sBsBPj-12" value="" style="shape=cylinder3;whiteSpace=wrap;html=1;boundedLbl=1;backgroundOutline=1;size=15;rotation=45;fillColor=#dae8fc;strokeColor=#6c8ebf;" vertex="1" parent="1">
          <mxGeometry x="290.23" y="195.71" width="31.55" height="225.75" as="geometry" />
        </mxCell>
        <mxCell id="qfekVwu-YrUrt4sBsBPj-13" value="" style="shape=cylinder3;whiteSpace=wrap;html=1;boundedLbl=1;backgroundOutline=1;size=15;rotation=-45;fillColor=#dae8fc;strokeColor=#6c8ebf;" vertex="1" parent="1">
          <mxGeometry x="508.54" y="196.46" width="30.59" height="225.75" as="geometry" />
        </mxCell>
        <mxCell id="qfekVwu-YrUrt4sBsBPj-14" value="" style="shape=cylinder3;whiteSpace=wrap;html=1;boundedLbl=1;backgroundOutline=1;size=15;rotation=90;fillColor=#dae8fc;strokeColor=#6c8ebf;" vertex="1" parent="1">
          <mxGeometry x="401.17" y="241.18" width="27.65" height="357.88" as="geometry" />
        </mxCell>
        <mxCell id="qfekVwu-YrUrt4sBsBPj-15" value="&lt;font style=&quot;font-size: 18px;&quot;&gt;VLAN 10&lt;/font&gt;" style="text;html=1;align=center;verticalAlign=middle;resizable=0;points=[];autosize=1;strokeColor=none;fillColor=none;" vertex="1" parent="1">
          <mxGeometry x="35" y="470" width="100" height="40" as="geometry" />
        </mxCell>
        <mxCell id="qfekVwu-YrUrt4sBsBPj-21" value="&lt;font style=&quot;font-size: 18px;&quot;&gt;VLAN 10&lt;/font&gt;" style="text;html=1;align=center;verticalAlign=middle;resizable=0;points=[];autosize=1;strokeColor=none;fillColor=none;" vertex="1" parent="1">
          <mxGeometry x="455" y="470" width="100" height="40" as="geometry" />
        </mxCell>
        <mxCell id="qfekVwu-YrUrt4sBsBPj-22" value="&lt;font style=&quot;font-size: 18px;&quot;&gt;VLAN 20&lt;/font&gt;" style="text;html=1;align=center;verticalAlign=middle;resizable=0;points=[];autosize=1;strokeColor=none;fillColor=none;" vertex="1" parent="1">
          <mxGeometry x="265" y="470" width="100" height="40" as="geometry" />
        </mxCell>
        <mxCell id="qfekVwu-YrUrt4sBsBPj-23" value="&lt;font style=&quot;font-size: 18px;&quot;&gt;VLAN 20&lt;/font&gt;" style="text;html=1;align=center;verticalAlign=middle;resizable=0;points=[];autosize=1;strokeColor=none;fillColor=none;" vertex="1" parent="1">
          <mxGeometry x="690" y="470" width="100" height="40" as="geometry" />
        </mxCell>
        <mxCell id="qfekVwu-YrUrt4sBsBPj-24" value="192.168.1.100/24" style="text;html=1;align=center;verticalAlign=middle;resizable=0;points=[];autosize=1;strokeColor=none;fillColor=none;" vertex="1" parent="1">
          <mxGeometry x="55" y="690" width="120" height="30" as="geometry" />
        </mxCell>
        <mxCell id="qfekVwu-YrUrt4sBsBPj-25" value="192.168.1.101/24" style="text;html=1;align=center;verticalAlign=middle;resizable=0;points=[];autosize=1;strokeColor=none;fillColor=none;" vertex="1" parent="1">
          <mxGeometry x="475" y="690" width="120" height="30" as="geometry" />
        </mxCell>
        <mxCell id="qfekVwu-YrUrt4sBsBPj-26" value="192.168.2.101/24" style="text;html=1;align=center;verticalAlign=middle;resizable=0;points=[];autosize=1;strokeColor=none;fillColor=none;" vertex="1" parent="1">
          <mxGeometry x="655" y="690" width="120" height="30" as="geometry" />
        </mxCell>
        <mxCell id="qfekVwu-YrUrt4sBsBPj-27" value="192.168.2.100/24" style="text;html=1;align=center;verticalAlign=middle;resizable=0;points=[];autosize=1;strokeColor=none;fillColor=none;" vertex="1" parent="1">
          <mxGeometry x="225" y="690" width="120" height="30" as="geometry" />
        </mxCell>
        <mxCell id="qfekVwu-YrUrt4sBsBPj-28" value="&lt;div style=&quot;color: rgb(225, 228, 232); background-color: rgb(36, 41, 46); font-family: Consolas, &amp;quot;Courier New&amp;quot;, monospace; font-size: 14px; line-height: 19px; white-space-collapse: preserve;&quot;&gt;&lt;div&gt;&lt;div style=&quot;line-height: 19px;&quot;&gt;&lt;div&gt;&lt;div style=&quot;line-height: 19px;&quot;&gt;&lt;div&gt;&lt;span style=&quot;color: #b392f0;&quot;&gt;vlan&lt;/span&gt; &lt;span style=&quot;color: #79b8ff;&quot;&gt;10&lt;/span&gt;&lt;/div&gt;&lt;div&gt;&amp;nbsp; &amp;nbsp; &lt;span style=&quot;color: #b392f0;&quot;&gt;vn-segment&lt;/span&gt; &lt;span style=&quot;color: #79b8ff;&quot;&gt;10&lt;/span&gt; &lt;span style=&quot;color: #6a737d;&quot;&gt;#binding VNI&lt;/span&gt;&lt;/div&gt;&lt;div&gt;&lt;span style=&quot;color: #b392f0;&quot;&gt;vlan&lt;/span&gt; &lt;span style=&quot;color: #79b8ff;&quot;&gt;20&lt;/span&gt; &lt;/div&gt;&lt;div&gt;&amp;nbsp; &amp;nbsp; &lt;span style=&quot;color: #b392f0;&quot;&gt;vn-segment&lt;/span&gt; &lt;span style=&quot;color: #79b8ff;&quot;&gt;20&lt;/span&gt; &lt;span style=&quot;color: #6a737d;&quot;&gt;#binding VNI&lt;/span&gt;&lt;/div&gt;&lt;/div&gt;&lt;/div&gt;&lt;div&gt;&lt;span style=&quot;color: #b392f0;&quot;&gt;router&lt;/span&gt; &lt;span style=&quot;color: #9ecbff;&quot;&gt;bgp&lt;/span&gt; &lt;span style=&quot;color: #79b8ff;&quot;&gt;100&lt;/span&gt;&lt;/div&gt;&lt;div&gt;&amp;nbsp; &amp;nbsp; &lt;span style=&quot;color: #b392f0;&quot;&gt;router-id&lt;/span&gt; &lt;span style=&quot;color: #79b8ff;&quot;&gt;3.3.3.3&lt;/span&gt;&lt;/div&gt;&lt;div&gt;&amp;nbsp; &amp;nbsp; &lt;span style=&quot;color: #b392f0;&quot;&gt;template&lt;/span&gt; &lt;span style=&quot;color: #9ecbff;&quot;&gt;peer&lt;/span&gt; &lt;span style=&quot;color: #9ecbff;&quot;&gt;VXLAN&lt;/span&gt;&lt;/div&gt;&lt;div&gt;&amp;nbsp; &amp;nbsp; &amp;nbsp; &amp;nbsp; &lt;span style=&quot;color: #b392f0;&quot;&gt;remote-as&lt;/span&gt; &lt;span style=&quot;color: #79b8ff;&quot;&gt;100&lt;/span&gt;&lt;/div&gt;&lt;div&gt;&amp;nbsp; &amp;nbsp; &amp;nbsp; &amp;nbsp; &lt;span style=&quot;color: #b392f0;&quot;&gt;update-source&lt;/span&gt; &lt;span style=&quot;color: #9ecbff;&quot;&gt;loopback0&lt;/span&gt;&lt;/div&gt;&lt;div&gt;&amp;nbsp; &amp;nbsp; &amp;nbsp; &amp;nbsp; &lt;span style=&quot;color: #b392f0;&quot;&gt;address-family&lt;/span&gt; &lt;span style=&quot;color: #9ecbff;&quot;&gt;l2vpn&lt;/span&gt; &lt;span style=&quot;color: #9ecbff;&quot;&gt;evpn&lt;/span&gt;&lt;/div&gt;&lt;div&gt;&amp;nbsp; &amp;nbsp; &amp;nbsp; &amp;nbsp; &amp;nbsp; &amp;nbsp; &lt;span style=&quot;color: #b392f0;&quot;&gt;send-community&lt;/span&gt; &lt;span style=&quot;color: #9ecbff;&quot;&gt;extended&lt;/span&gt;&lt;/div&gt;&lt;div&gt;&amp;nbsp; &amp;nbsp; &amp;nbsp; &amp;nbsp; &amp;nbsp; &amp;nbsp; &lt;span style=&quot;color: #b392f0;&quot;&gt;route-reflector-client&lt;/span&gt; &lt;/div&gt;&lt;/div&gt;&lt;/div&gt;&lt;div&gt;&lt;span style=&quot;color: #b392f0;&quot;&gt;int&lt;/span&gt; &lt;span style=&quot;color: #9ecbff;&quot;&gt;nve&lt;/span&gt; &lt;span style=&quot;color: #79b8ff;&quot;&gt;1&lt;/span&gt;&lt;/div&gt;&lt;div&gt;&amp;nbsp; &amp;nbsp; &lt;span style=&quot;color: #b392f0;&quot;&gt;no&lt;/span&gt; &lt;span style=&quot;color: #9ecbff;&quot;&gt;shutdown&lt;/span&gt; &lt;/div&gt;&lt;div&gt;&amp;nbsp; &amp;nbsp; &lt;span style=&quot;color: #b392f0;&quot;&gt;source-interface&lt;/span&gt; &lt;span style=&quot;color: #9ecbff;&quot;&gt;loopback&lt;/span&gt; &lt;span style=&quot;color: #79b8ff;&quot;&gt;0&lt;/span&gt;&lt;/div&gt;&lt;div&gt;&amp;nbsp; &amp;nbsp; &lt;span style=&quot;color: #b392f0;&quot;&gt;host-reachability&lt;/span&gt; &lt;span style=&quot;color: #9ecbff;&quot;&gt;protocol&lt;/span&gt; &lt;span style=&quot;color: #9ecbff;&quot;&gt;bgp&lt;/span&gt; &lt;/div&gt;&lt;div&gt;&amp;nbsp; &amp;nbsp; &lt;span style=&quot;color: #b392f0;&quot;&gt;member&lt;/span&gt; &lt;span style=&quot;color: #9ecbff;&quot;&gt;vni&lt;/span&gt; &lt;span style=&quot;color: #79b8ff;&quot;&gt;10&lt;/span&gt; &lt;/div&gt;&lt;div&gt;&amp;nbsp; &amp;nbsp; &amp;nbsp; &amp;nbsp; &lt;span style=&quot;color: #b392f0;&quot;&gt;ingress-replication&lt;/span&gt; &lt;span style=&quot;color: #9ecbff;&quot;&gt;protocol&lt;/span&gt; &lt;span style=&quot;color: #9ecbff;&quot;&gt;bgp&lt;/span&gt; &lt;/div&gt;&lt;div&gt;&amp;nbsp; &amp;nbsp; &lt;span style=&quot;color: #b392f0;&quot;&gt;member&lt;/span&gt; &lt;span style=&quot;color: #9ecbff;&quot;&gt;vni&lt;/span&gt; &lt;span style=&quot;color: #79b8ff;&quot;&gt;20&lt;/span&gt; &lt;/div&gt;&lt;div&gt;&amp;nbsp; &amp;nbsp; &amp;nbsp; &amp;nbsp; &lt;span style=&quot;color: #b392f0;&quot;&gt;ingress-replication&lt;/span&gt; &lt;span style=&quot;color: #9ecbff;&quot;&gt;protocol&lt;/span&gt; &lt;span style=&quot;color: #9ecbff;&quot;&gt;bgp&lt;/span&gt; &lt;/div&gt;&lt;/div&gt;" style="text;html=1;align=left;verticalAlign=middle;resizable=0;points=[];autosize=1;strokeColor=none;fillColor=none;" vertex="1" parent="1">
          <mxGeometry x="255" y="-220" width="340" height="390" as="geometry" />
        </mxCell>
        <mxCell id="qfekVwu-YrUrt4sBsBPj-29" value="&lt;div style=&quot;color: #e1e4e8;background-color: #24292e;font-family: Consolas, &#39;Courier New&#39;, monospace;font-weight: normal;font-size: 14px;line-height: 19px;white-space: pre;&quot;&gt;&lt;div&gt;&lt;div style=&quot;line-height: 19px;&quot;&gt;&lt;div&gt;&lt;span style=&quot;color: #b392f0;&quot;&gt;vlan&lt;/span&gt; &lt;span style=&quot;color: #79b8ff;&quot;&gt;10&lt;/span&gt;&lt;/div&gt;&lt;div&gt;&amp;nbsp; &amp;nbsp; &lt;span style=&quot;color: #b392f0;&quot;&gt;vn-segment&lt;/span&gt; &lt;span style=&quot;color: #79b8ff;&quot;&gt;10&lt;/span&gt; &lt;span style=&quot;color: #6a737d;&quot;&gt;#binding VNI&lt;/span&gt;&lt;/div&gt;&lt;div&gt;&lt;span style=&quot;color: #b392f0;&quot;&gt;vlan&lt;/span&gt; &lt;span style=&quot;color: #79b8ff;&quot;&gt;20&lt;/span&gt; &lt;/div&gt;&lt;div&gt;&amp;nbsp; &amp;nbsp; &lt;span style=&quot;color: #b392f0;&quot;&gt;vn-segment&lt;/span&gt; &lt;span style=&quot;color: #79b8ff;&quot;&gt;20&lt;/span&gt; &lt;span style=&quot;color: #6a737d;&quot;&gt;#binding VNI&lt;/span&gt;&lt;/div&gt;&lt;/div&gt;&lt;/div&gt;&lt;div&gt;&lt;span style=&quot;color: #b392f0;&quot;&gt;router&lt;/span&gt;&lt;span style=&quot;color: #e1e4e8;&quot;&gt; &lt;/span&gt;&lt;span style=&quot;color: #9ecbff;&quot;&gt;bgp&lt;/span&gt;&lt;span style=&quot;color: #e1e4e8;&quot;&gt; &lt;/span&gt;&lt;span style=&quot;color: #79b8ff;&quot;&gt;100&lt;/span&gt;&lt;/div&gt;&lt;div&gt;&lt;span style=&quot;color: #e1e4e8;&quot;&gt;&amp;nbsp; &lt;/span&gt;&lt;span style=&quot;color: #b392f0;&quot;&gt;router-id&lt;/span&gt;&lt;span style=&quot;color: #e1e4e8;&quot;&gt; &lt;/span&gt;&lt;span style=&quot;color: #79b8ff;&quot;&gt;2.2.2.2&lt;/span&gt;&lt;/div&gt;&lt;div&gt;&lt;span style=&quot;color: #e1e4e8;&quot;&gt;&amp;nbsp; &lt;/span&gt;&lt;span style=&quot;color: #b392f0;&quot;&gt;template&lt;/span&gt;&lt;span style=&quot;color: #e1e4e8;&quot;&gt; &lt;/span&gt;&lt;span style=&quot;color: #9ecbff;&quot;&gt;peer&lt;/span&gt;&lt;span style=&quot;color: #e1e4e8;&quot;&gt; &lt;/span&gt;&lt;span style=&quot;color: #9ecbff;&quot;&gt;VXLAN&lt;/span&gt;&lt;/div&gt;&lt;div&gt;&lt;span style=&quot;color: #e1e4e8;&quot;&gt;&amp;nbsp; &amp;nbsp; &lt;/span&gt;&lt;span style=&quot;color: #b392f0;&quot;&gt;remote-as&lt;/span&gt;&lt;span style=&quot;color: #e1e4e8;&quot;&gt; &lt;/span&gt;&lt;span style=&quot;color: #79b8ff;&quot;&gt;100&lt;/span&gt;&lt;/div&gt;&lt;div&gt;&lt;span style=&quot;color: #e1e4e8;&quot;&gt;&amp;nbsp; &amp;nbsp; &lt;/span&gt;&lt;span style=&quot;color: #b392f0;&quot;&gt;update-source&lt;/span&gt;&lt;span style=&quot;color: #e1e4e8;&quot;&gt; &lt;/span&gt;&lt;span style=&quot;color: #9ecbff;&quot;&gt;loopback0&lt;/span&gt;&lt;/div&gt;&lt;div&gt;&lt;span style=&quot;color: #e1e4e8;&quot;&gt;&amp;nbsp; &amp;nbsp; &lt;/span&gt;&lt;span style=&quot;color: #b392f0;&quot;&gt;address-family&lt;/span&gt;&lt;span style=&quot;color: #e1e4e8;&quot;&gt; &lt;/span&gt;&lt;span style=&quot;color: #9ecbff;&quot;&gt;l2vpn&lt;/span&gt;&lt;span style=&quot;color: #e1e4e8;&quot;&gt; &lt;/span&gt;&lt;span style=&quot;color: #9ecbff;&quot;&gt;evpn&lt;/span&gt;&lt;/div&gt;&lt;div&gt;&lt;span style=&quot;color: #e1e4e8;&quot;&gt;&amp;nbsp; &amp;nbsp; &amp;nbsp; &lt;/span&gt;&lt;span style=&quot;color: #b392f0;&quot;&gt;send-community&lt;/span&gt;&lt;span style=&quot;color: #e1e4e8;&quot;&gt; &lt;/span&gt;&lt;span style=&quot;color: #9ecbff;&quot;&gt;extended&lt;/span&gt;&lt;/div&gt;&lt;div&gt;&lt;span style=&quot;color: #e1e4e8;&quot;&gt;&amp;nbsp; &lt;/span&gt;&lt;span style=&quot;color: #b392f0;&quot;&gt;neighbor&lt;/span&gt;&lt;span style=&quot;color: #e1e4e8;&quot;&gt; &lt;/span&gt;&lt;span style=&quot;color: #79b8ff;&quot;&gt;3.3.3.3&lt;/span&gt;&lt;/div&gt;&lt;div&gt;&lt;span style=&quot;color: #e1e4e8;&quot;&gt;&amp;nbsp; &amp;nbsp; &lt;/span&gt;&lt;span style=&quot;color: #b392f0;&quot;&gt;inherit&lt;/span&gt;&lt;span style=&quot;color: #e1e4e8;&quot;&gt; &lt;/span&gt;&lt;span style=&quot;color: #9ecbff;&quot;&gt;peer&lt;/span&gt;&lt;span style=&quot;color: #e1e4e8;&quot;&gt; &lt;/span&gt;&lt;span style=&quot;color: #9ecbff;&quot;&gt;VXLAN&lt;/span&gt;&lt;/div&gt;&lt;div&gt;&lt;span style=&quot;color: #b392f0;&quot;&gt;int&lt;/span&gt;&lt;span style=&quot;color: #e1e4e8;&quot;&gt; &lt;/span&gt;&lt;span style=&quot;color: #9ecbff;&quot;&gt;nve&lt;/span&gt;&lt;span style=&quot;color: #e1e4e8;&quot;&gt; &lt;/span&gt;&lt;span style=&quot;color: #79b8ff;&quot;&gt;1&lt;/span&gt;&lt;/div&gt;&lt;div&gt;&lt;span style=&quot;color: #e1e4e8;&quot;&gt;&amp;nbsp; &amp;nbsp; &lt;/span&gt;&lt;span style=&quot;color: #b392f0;&quot;&gt;no&lt;/span&gt;&lt;span style=&quot;color: #e1e4e8;&quot;&gt; &lt;/span&gt;&lt;span style=&quot;color: #9ecbff;&quot;&gt;shutdown&lt;/span&gt;&lt;span style=&quot;color: #e1e4e8;&quot;&gt; &lt;/span&gt;&lt;/div&gt;&lt;div&gt;&lt;span style=&quot;color: #e1e4e8;&quot;&gt;&amp;nbsp; &amp;nbsp; &lt;/span&gt;&lt;span style=&quot;color: #b392f0;&quot;&gt;source-interface&lt;/span&gt;&lt;span style=&quot;color: #e1e4e8;&quot;&gt; &lt;/span&gt;&lt;span style=&quot;color: #9ecbff;&quot;&gt;loopback&lt;/span&gt;&lt;span style=&quot;color: #e1e4e8;&quot;&gt; &lt;/span&gt;&lt;span style=&quot;color: #79b8ff;&quot;&gt;0&lt;/span&gt;&lt;/div&gt;&lt;div&gt;&lt;span style=&quot;color: #e1e4e8;&quot;&gt;&amp;nbsp; &amp;nbsp; &lt;/span&gt;&lt;span style=&quot;color: #b392f0;&quot;&gt;host-reachability&lt;/span&gt;&lt;span style=&quot;color: #e1e4e8;&quot;&gt; &lt;/span&gt;&lt;span style=&quot;color: #9ecbff;&quot;&gt;protocol&lt;/span&gt;&lt;span style=&quot;color: #e1e4e8;&quot;&gt; &lt;/span&gt;&lt;span style=&quot;color: #9ecbff;&quot;&gt;bgp&lt;/span&gt;&lt;span style=&quot;color: #e1e4e8;&quot;&gt; &lt;/span&gt;&lt;/div&gt;&lt;div&gt;&lt;span style=&quot;color: #e1e4e8;&quot;&gt;&amp;nbsp; &amp;nbsp; &lt;/span&gt;&lt;span style=&quot;color: #b392f0;&quot;&gt;member&lt;/span&gt;&lt;span style=&quot;color: #e1e4e8;&quot;&gt; &lt;/span&gt;&lt;span style=&quot;color: #9ecbff;&quot;&gt;vni&lt;/span&gt;&lt;span style=&quot;color: #e1e4e8;&quot;&gt; &lt;/span&gt;&lt;span style=&quot;color: #79b8ff;&quot;&gt;10&lt;/span&gt;&lt;span style=&quot;color: #e1e4e8;&quot;&gt; &lt;/span&gt;&lt;/div&gt;&lt;div&gt;&lt;span style=&quot;color: #e1e4e8;&quot;&gt;&amp;nbsp; &amp;nbsp; &amp;nbsp; &amp;nbsp; &lt;/span&gt;&lt;span style=&quot;color: #b392f0;&quot;&gt;ingress-replication&lt;/span&gt;&lt;span style=&quot;color: #e1e4e8;&quot;&gt; &lt;/span&gt;&lt;span style=&quot;color: #9ecbff;&quot;&gt;protocol&lt;/span&gt;&lt;span style=&quot;color: #e1e4e8;&quot;&gt; &lt;/span&gt;&lt;span style=&quot;color: #9ecbff;&quot;&gt;bgp&lt;/span&gt;&lt;span style=&quot;color: #e1e4e8;&quot;&gt; &lt;/span&gt;&lt;/div&gt;&lt;div&gt;&lt;span style=&quot;color: #e1e4e8;&quot;&gt;&amp;nbsp; &amp;nbsp; &lt;/span&gt;&lt;span style=&quot;color: #b392f0;&quot;&gt;member&lt;/span&gt;&lt;span style=&quot;color: #e1e4e8;&quot;&gt; &lt;/span&gt;&lt;span style=&quot;color: #9ecbff;&quot;&gt;vni&lt;/span&gt;&lt;span style=&quot;color: #e1e4e8;&quot;&gt; &lt;/span&gt;&lt;span style=&quot;color: #79b8ff;&quot;&gt;20&lt;/span&gt;&lt;span style=&quot;color: #e1e4e8;&quot;&gt; &lt;/span&gt;&lt;/div&gt;&lt;div&gt;&lt;span style=&quot;color: #e1e4e8;&quot;&gt;&amp;nbsp; &amp;nbsp; &amp;nbsp; &amp;nbsp; &lt;/span&gt;&lt;span style=&quot;color: #b392f0;&quot;&gt;ingress-replication&lt;/span&gt;&lt;span style=&quot;color: #e1e4e8;&quot;&gt; &lt;/span&gt;&lt;span style=&quot;color: #9ecbff;&quot;&gt;protocol&lt;/span&gt;&lt;span style=&quot;color: #e1e4e8;&quot;&gt; &lt;/span&gt;&lt;span style=&quot;color: #9ecbff;&quot;&gt;bgp&lt;/span&gt;&lt;span style=&quot;color: #e1e4e8;&quot;&gt; &lt;/span&gt;&lt;/div&gt;&lt;/div&gt;" style="text;whiteSpace=wrap;html=1;" vertex="1" parent="1">
          <mxGeometry x="730" y="50" width="350" height="350" as="geometry" />
        </mxCell>
        <mxCell id="qfekVwu-YrUrt4sBsBPj-32" value="&lt;font style=&quot;font-size: 18px;&quot;&gt;Edge2&lt;/font&gt;" style="text;html=1;align=center;verticalAlign=middle;resizable=0;points=[];autosize=1;strokeColor=none;fillColor=none;" vertex="1" parent="1">
          <mxGeometry x="650" y="395" width="80" height="40" as="geometry" />
        </mxCell>
        <mxCell id="qfekVwu-YrUrt4sBsBPj-33" value="&lt;font style=&quot;font-size: 18px;&quot;&gt;Edge1&lt;/font&gt;" style="text;html=1;align=center;verticalAlign=middle;resizable=0;points=[];autosize=1;strokeColor=none;fillColor=none;" vertex="1" parent="1">
          <mxGeometry x="95" y="400" width="80" height="40" as="geometry" />
        </mxCell>
        <mxCell id="qfekVwu-YrUrt4sBsBPj-34" value="&lt;font style=&quot;font-size: 18px;&quot;&gt;Edge3(BGP RR)&lt;/font&gt;" style="text;html=1;align=center;verticalAlign=middle;resizable=0;points=[];autosize=1;strokeColor=none;fillColor=none;" vertex="1" parent="1">
          <mxGeometry x="435" y="180" width="160" height="40" as="geometry" />
        </mxCell>
        <mxCell id="qfekVwu-YrUrt4sBsBPj-35" value="&lt;div style=&quot;background-color: rgb(36, 41, 46); font-family: Consolas, &amp;quot;Courier New&amp;quot;, monospace; font-weight: normal; font-size: 14px; line-height: 19px; white-space: pre;&quot;&gt;&lt;div style=&quot;color: rgb(225, 228, 232);&quot;&gt;&lt;div style=&quot;line-height: 19px;&quot;&gt;&lt;div&gt;&lt;span style=&quot;color: #b392f0;&quot;&gt;vlan&lt;/span&gt; &lt;span style=&quot;color: #79b8ff;&quot;&gt;10&lt;/span&gt;&lt;/div&gt;&lt;div&gt;&amp;nbsp; &amp;nbsp; &lt;span style=&quot;color: #b392f0;&quot;&gt;vn-segment&lt;/span&gt; &lt;span style=&quot;color: #79b8ff;&quot;&gt;10&lt;/span&gt; &lt;span style=&quot;color: #6a737d;&quot;&gt;#binding VNI&lt;/span&gt;&lt;/div&gt;&lt;div&gt;&lt;span style=&quot;color: #b392f0;&quot;&gt;vlan&lt;/span&gt; &lt;span style=&quot;color: #79b8ff;&quot;&gt;20&lt;/span&gt; &lt;/div&gt;&lt;div&gt;&amp;nbsp; &amp;nbsp; &lt;span style=&quot;color: #b392f0;&quot;&gt;vn-segment&lt;/span&gt; &lt;span style=&quot;color: #79b8ff;&quot;&gt;20&lt;/span&gt; &lt;span style=&quot;color: #6a737d;&quot;&gt;#binding VNI&lt;/span&gt;&lt;/div&gt;&lt;/div&gt;&lt;/div&gt;&lt;div style=&quot;color: rgb(225, 228, 232);&quot;&gt;&lt;span style=&quot;color: #b392f0;&quot;&gt;router&lt;/span&gt;&lt;span style=&quot;color: #e1e4e8;&quot;&gt; &lt;/span&gt;&lt;span style=&quot;color: #9ecbff;&quot;&gt;bgp&lt;/span&gt;&lt;span style=&quot;color: #e1e4e8;&quot;&gt; &lt;/span&gt;&lt;span style=&quot;color: #79b8ff;&quot;&gt;100&lt;/span&gt;&lt;/div&gt;&lt;div style=&quot;&quot;&gt;&lt;span style=&quot;color: rgb(225, 228, 232);&quot;&gt;&amp;nbsp; &lt;/span&gt;&lt;span style=&quot;color: rgb(179, 146, 240);&quot;&gt;router-id&lt;/span&gt;&lt;span style=&quot;color: rgb(225, 228, 232);&quot;&gt; &lt;/span&gt;&lt;font color=&quot;#79b8ff&quot;&gt;1.1.1.1&lt;/font&gt;&lt;/div&gt;&lt;div style=&quot;color: rgb(225, 228, 232);&quot;&gt;&lt;span style=&quot;color: #e1e4e8;&quot;&gt;&amp;nbsp; &lt;/span&gt;&lt;span style=&quot;color: #b392f0;&quot;&gt;template&lt;/span&gt;&lt;span style=&quot;color: #e1e4e8;&quot;&gt; &lt;/span&gt;&lt;span style=&quot;color: #9ecbff;&quot;&gt;peer&lt;/span&gt;&lt;span style=&quot;color: #e1e4e8;&quot;&gt; &lt;/span&gt;&lt;span style=&quot;color: #9ecbff;&quot;&gt;VXLAN&lt;/span&gt;&lt;/div&gt;&lt;div style=&quot;color: rgb(225, 228, 232);&quot;&gt;&lt;span style=&quot;color: #e1e4e8;&quot;&gt;&amp;nbsp; &amp;nbsp; &lt;/span&gt;&lt;span style=&quot;color: #b392f0;&quot;&gt;remote-as&lt;/span&gt;&lt;span style=&quot;color: #e1e4e8;&quot;&gt; &lt;/span&gt;&lt;span style=&quot;color: #79b8ff;&quot;&gt;100&lt;/span&gt;&lt;/div&gt;&lt;div style=&quot;color: rgb(225, 228, 232);&quot;&gt;&lt;span style=&quot;color: #e1e4e8;&quot;&gt;&amp;nbsp; &amp;nbsp; &lt;/span&gt;&lt;span style=&quot;color: #b392f0;&quot;&gt;update-source&lt;/span&gt;&lt;span style=&quot;color: #e1e4e8;&quot;&gt; &lt;/span&gt;&lt;span style=&quot;color: #9ecbff;&quot;&gt;loopback0&lt;/span&gt;&lt;/div&gt;&lt;div style=&quot;color: rgb(225, 228, 232);&quot;&gt;&lt;span style=&quot;color: #e1e4e8;&quot;&gt;&amp;nbsp; &amp;nbsp; &lt;/span&gt;&lt;span style=&quot;color: #b392f0;&quot;&gt;address-family&lt;/span&gt;&lt;span style=&quot;color: #e1e4e8;&quot;&gt; &lt;/span&gt;&lt;span style=&quot;color: #9ecbff;&quot;&gt;l2vpn&lt;/span&gt;&lt;span style=&quot;color: #e1e4e8;&quot;&gt; &lt;/span&gt;&lt;span style=&quot;color: #9ecbff;&quot;&gt;evpn&lt;/span&gt;&lt;/div&gt;&lt;div style=&quot;color: rgb(225, 228, 232);&quot;&gt;&lt;span style=&quot;color: #e1e4e8;&quot;&gt;&amp;nbsp; &amp;nbsp; &amp;nbsp; &lt;/span&gt;&lt;span style=&quot;color: #b392f0;&quot;&gt;send-community&lt;/span&gt;&lt;span style=&quot;color: #e1e4e8;&quot;&gt; &lt;/span&gt;&lt;span style=&quot;color: #9ecbff;&quot;&gt;extended&lt;/span&gt;&lt;/div&gt;&lt;div style=&quot;color: rgb(225, 228, 232);&quot;&gt;&lt;span style=&quot;color: #e1e4e8;&quot;&gt;&amp;nbsp; &lt;/span&gt;&lt;span style=&quot;color: #b392f0;&quot;&gt;neighbor&lt;/span&gt;&lt;span style=&quot;color: #e1e4e8;&quot;&gt; &lt;/span&gt;&lt;span style=&quot;color: #79b8ff;&quot;&gt;3.3.3.3&lt;/span&gt;&lt;/div&gt;&lt;div style=&quot;color: rgb(225, 228, 232);&quot;&gt;&lt;span style=&quot;color: #e1e4e8;&quot;&gt;&amp;nbsp; &amp;nbsp; &lt;/span&gt;&lt;span style=&quot;color: #b392f0;&quot;&gt;inherit&lt;/span&gt;&lt;span style=&quot;color: #e1e4e8;&quot;&gt; &lt;/span&gt;&lt;span style=&quot;color: #9ecbff;&quot;&gt;peer&lt;/span&gt;&lt;span style=&quot;color: #e1e4e8;&quot;&gt; &lt;/span&gt;&lt;span style=&quot;color: #9ecbff;&quot;&gt;VXLAN&lt;/span&gt;&lt;/div&gt;&lt;div style=&quot;color: rgb(225, 228, 232);&quot;&gt;&lt;span style=&quot;color: #b392f0;&quot;&gt;int&lt;/span&gt;&lt;span style=&quot;color: #e1e4e8;&quot;&gt; &lt;/span&gt;&lt;span style=&quot;color: #9ecbff;&quot;&gt;nve&lt;/span&gt;&lt;span style=&quot;color: #e1e4e8;&quot;&gt; &lt;/span&gt;&lt;span style=&quot;color: #79b8ff;&quot;&gt;1&lt;/span&gt;&lt;/div&gt;&lt;div style=&quot;color: rgb(225, 228, 232);&quot;&gt;&lt;span style=&quot;color: #e1e4e8;&quot;&gt;&amp;nbsp; &amp;nbsp; &lt;/span&gt;&lt;span style=&quot;color: #b392f0;&quot;&gt;no&lt;/span&gt;&lt;span style=&quot;color: #e1e4e8;&quot;&gt; &lt;/span&gt;&lt;span style=&quot;color: #9ecbff;&quot;&gt;shutdown&lt;/span&gt;&lt;span style=&quot;color: #e1e4e8;&quot;&gt; &lt;/span&gt;&lt;/div&gt;&lt;div style=&quot;color: rgb(225, 228, 232);&quot;&gt;&lt;span style=&quot;color: #e1e4e8;&quot;&gt;&amp;nbsp; &amp;nbsp; &lt;/span&gt;&lt;span style=&quot;color: #b392f0;&quot;&gt;source-interface&lt;/span&gt;&lt;span style=&quot;color: #e1e4e8;&quot;&gt; &lt;/span&gt;&lt;span style=&quot;color: #9ecbff;&quot;&gt;loopback&lt;/span&gt;&lt;span style=&quot;color: #e1e4e8;&quot;&gt; &lt;/span&gt;&lt;span style=&quot;color: #79b8ff;&quot;&gt;0&lt;/span&gt;&lt;/div&gt;&lt;div style=&quot;color: rgb(225, 228, 232);&quot;&gt;&lt;span style=&quot;color: #e1e4e8;&quot;&gt;&amp;nbsp; &amp;nbsp; &lt;/span&gt;&lt;span style=&quot;color: #b392f0;&quot;&gt;host-reachability&lt;/span&gt;&lt;span style=&quot;color: #e1e4e8;&quot;&gt; &lt;/span&gt;&lt;span style=&quot;color: #9ecbff;&quot;&gt;protocol&lt;/span&gt;&lt;span style=&quot;color: #e1e4e8;&quot;&gt; &lt;/span&gt;&lt;span style=&quot;color: #9ecbff;&quot;&gt;bgp&lt;/span&gt;&lt;span style=&quot;color: #e1e4e8;&quot;&gt; &lt;/span&gt;&lt;/div&gt;&lt;div style=&quot;color: rgb(225, 228, 232);&quot;&gt;&lt;span style=&quot;color: #e1e4e8;&quot;&gt;&amp;nbsp; &amp;nbsp; &lt;/span&gt;&lt;span style=&quot;color: #b392f0;&quot;&gt;member&lt;/span&gt;&lt;span style=&quot;color: #e1e4e8;&quot;&gt; &lt;/span&gt;&lt;span style=&quot;color: #9ecbff;&quot;&gt;vni&lt;/span&gt;&lt;span style=&quot;color: #e1e4e8;&quot;&gt; &lt;/span&gt;&lt;span style=&quot;color: #79b8ff;&quot;&gt;10&lt;/span&gt;&lt;span style=&quot;color: #e1e4e8;&quot;&gt; &lt;/span&gt;&lt;/div&gt;&lt;div style=&quot;color: rgb(225, 228, 232);&quot;&gt;&lt;span style=&quot;color: #e1e4e8;&quot;&gt;&amp;nbsp; &amp;nbsp; &amp;nbsp; &amp;nbsp; &lt;/span&gt;&lt;span style=&quot;color: #b392f0;&quot;&gt;ingress-replication&lt;/span&gt;&lt;span style=&quot;color: #e1e4e8;&quot;&gt; &lt;/span&gt;&lt;span style=&quot;color: #9ecbff;&quot;&gt;protocol&lt;/span&gt;&lt;span style=&quot;color: #e1e4e8;&quot;&gt; &lt;/span&gt;&lt;span style=&quot;color: #9ecbff;&quot;&gt;bgp&lt;/span&gt;&lt;span style=&quot;color: #e1e4e8;&quot;&gt; &lt;/span&gt;&lt;/div&gt;&lt;div style=&quot;color: rgb(225, 228, 232);&quot;&gt;&lt;span style=&quot;color: #e1e4e8;&quot;&gt;&amp;nbsp; &amp;nbsp; &lt;/span&gt;&lt;span style=&quot;color: #b392f0;&quot;&gt;member&lt;/span&gt;&lt;span style=&quot;color: #e1e4e8;&quot;&gt; &lt;/span&gt;&lt;span style=&quot;color: #9ecbff;&quot;&gt;vni&lt;/span&gt;&lt;span style=&quot;color: #e1e4e8;&quot;&gt; &lt;/span&gt;&lt;span style=&quot;color: #79b8ff;&quot;&gt;20&lt;/span&gt;&lt;span style=&quot;color: #e1e4e8;&quot;&gt; &lt;/span&gt;&lt;/div&gt;&lt;div style=&quot;color: rgb(225, 228, 232);&quot;&gt;&lt;span style=&quot;color: #e1e4e8;&quot;&gt;&amp;nbsp; &amp;nbsp; &amp;nbsp; &amp;nbsp; &lt;/span&gt;&lt;span style=&quot;color: #b392f0;&quot;&gt;ingress-replication&lt;/span&gt;&lt;span style=&quot;color: #e1e4e8;&quot;&gt; &lt;/span&gt;&lt;span style=&quot;color: #9ecbff;&quot;&gt;protocol&lt;/span&gt;&lt;span style=&quot;color: #e1e4e8;&quot;&gt; &lt;/span&gt;&lt;span style=&quot;color: #9ecbff;&quot;&gt;bgp&lt;/span&gt;&lt;span style=&quot;color: #e1e4e8;&quot;&gt; &lt;/span&gt;&lt;/div&gt;&lt;/div&gt;" style="text;whiteSpace=wrap;html=1;" vertex="1" parent="1">
          <mxGeometry x="-220" y="50" width="350" height="350" as="geometry" />
        </mxCell>
      </root>
    </mxGraphModel>
  </diagram>
</mxfile>
